<?xml version="1.0" encoding="iso-8859-1"?>
<!-- Generator: Adobe Illustrator 19.1.0, SVG Export Plug-In . SVG Version: 6.00 Build 0)  -->
<svg version="1.1" id="Capa_1" xmlns="http://www.w3.org/2000/svg" xmlns:xlink="http://www.w3.org/1999/xlink" x="0px" y="0px"
	 viewBox="0 0 216.291 216.291" style="enable-background:new 0 0 216.291 216.291;" xml:space="preserve">
<g>
	<g id="group-36svg">
		<path id="path-1_98_" style="fill:#FBB713;" d="M76.253,146.537c0,0-48.222-20.918,0-98.89c0,0,4.561,30.428,13.914,38.035
			c0,0,14.174-38.035,31.92-38.035c0,0,12.403,3.804,1.637-30.428c0,0,14.291,7.608,19.999,36.134c0,0,3.89,9.508,0,28.527
			c0,0,25.517-11.412,25.211-43.741c0,0,44.465,57.052,0.004,108.398C139.986,165.334,109.12,165.611,76.253,146.537z"/>
		<path id="path-2_98_" style="opacity:0.25;fill:#020403;enable-background:new    ;" d="M124.825,47.397
			c1.914,4.477,3.664,9.83,4.96,16.311c0,0,3.891,9.509,0,28.526c0,0,7.363-3.341,14.133-11.405
			c3.53-18.302-0.195-27.477-0.195-27.477c-5.708-28.525-19.999-36.133-19.999-36.133C130.969,40.252,127.723,46.059,124.825,47.397
			z"/>
		<path id="path-3_98_" style="opacity:0.25;fill:#020403;enable-background:new    ;" d="M76.229,96.038
			c0,0,3.266-8.75,8.618-17.854c-5.758-11.739-8.594-30.537-8.594-30.537c-4.827,7.805-8.649,15.014-11.688,21.711
			C66.78,78.838,70.643,91.495,76.229,96.038z"/>
		<path id="path-4_97_" style="opacity:0.25;fill:#020403;enable-background:new    ;" d="M168.934,38.139
			c0.094,9.911-2.25,17.837-5.532,24.09c9.843,19.17,21.667,55.506-4.731,90.132c3.449-1.694,6.871-3.619,10.267-5.824
			C213.399,95.191,168.934,38.139,168.934,38.139z"/>
		<path id="path-5_97_" style="fill:#FFFFFF;" d="M78.475,141.963c-0.81,0-1.628-0.267-2.306-0.818
			c-10.142-8.251-14.72-37.037-15.205-40.291c-0.295-1.97,1.075-3.803,3.063-4.095c2.003-0.296,3.841,1.066,4.135,3.034
			c1.688,11.237,6.61,30.887,12.626,35.779c1.553,1.264,1.777,3.535,0.501,5.074C80.571,141.515,79.527,141.963,78.475,141.963z"/>
		<path id="path-6_96_" style="opacity:0.25;fill:#020403;enable-background:new    ;" d="M95.891,156.238
			c0,0-27.247-11.82,0-55.876c0,0,2.578,17.192,7.863,21.49c0,0,8.009-21.49,18.036-21.49c0,0,7.008,2.148,0.925-17.194
			c0,0,8.074,4.298,11.3,20.416c0,0,2.198,5.374,0,16.12c0,0,14.419-6.448,14.246-24.715c0,0,25.123,32.236,0.001,61.249
			C131.903,166.859,114.462,167.015,95.891,156.238z"/>
		<path id="path-7_96_" style="fill:#FF3A2F;" d="M98.954,154.862c0,0-20.312-8.811,0-41.651c0,0,1.92,12.815,5.86,16.019
			c0,0,5.97-16.019,13.445-16.019c0,0,5.224,1.601,0.689-12.817c0,0,6.019,3.204,8.423,15.219c0,0,1.639,4.006,0,12.015
			c0,0,10.748-4.806,10.619-18.422c0,0,18.728,24.029,0.001,45.656C125.798,162.779,112.796,162.895,98.954,154.862z"/>
		<path id="path-8_93_" style="opacity:0.25;fill:#020403;enable-background:new    ;" d="M118.754,113.26
			c0.632,1.656,1.202,3.578,1.648,5.805c0,0,1.639,4.005,0,12.015c0,0,4.364-1.969,7.498-6.915c0.61-5.677-0.529-8.552-0.529-8.552
			c-2.404-12.015-8.423-15.219-8.423-15.219C122.591,111.976,119.938,113.218,118.754,113.26z"/>
		<path id="path-9_89_" style="opacity:0.25;fill:#020403;enable-background:new    ;" d="M137.99,109.205
			c0.043,4.512-1.117,8.039-2.677,10.762c4.116,8.77,8.063,24.078-4.291,38.347c-0.18,0.117-0.363,0.194-0.543,0.307
			c2.535-0.961,5.044-2.156,7.512-3.76C156.718,133.235,137.99,109.205,137.99,109.205z"/>
		<path id="path-10_82_" style="opacity:0.25;fill:#020403;enable-background:new    ;" d="M97.845,132.682
			c0,0,1.54-4.121,4.03-8.183c-1.956-4.888-2.921-11.288-2.921-11.288c-2.34,3.783-4.12,7.234-5.476,10.403
			C94.451,127.182,95.902,131.1,97.845,132.682z"/>
		<path id="path-11_72_" style="fill:#FFFFFF;" d="M102.438,154.815c-0.245,0-0.495-0.049-0.729-0.151
			c-0.143-0.062-14.15-6.395-8.956-26.35c0.253-0.963,1.234-1.548,2.218-1.295c0.974,0.249,1.557,1.23,1.308,2.195
			c-4.432,17.018,6.773,22.098,6.887,22.147c0.92,0.399,1.34,1.463,0.938,2.374C103.804,154.412,103.137,154.815,102.438,154.815z"
			/>
		<path id="path-12_61_" style="fill:#FFFFFF;" d="M108.296,136.086c-0.209,0-0.422-0.036-0.628-0.112
			c-0.946-0.345-1.425-1.381-1.076-2.315c0.653-1.76,6.652-17.198,15.151-17.198c1.007,0,1.82,0.808,1.82,1.803
			c0,0.995-0.813,1.802-1.82,1.802c-4.513,0-9.597,9.104-11.74,14.843C109.732,135.636,109.036,136.086,108.296,136.086z"/>
		<path id="path-13_49_" style="fill:#142A3B;" d="M27.788,202.509l186.749-44.049l-4.892-20.35L22.897,182.16L27.788,202.509z"/>
		<path id="path-14_39_" style="opacity:0.35;enable-background:new    ;" d="M150.033,174.661l14.975-3.533l1.731-5.265
			l-29.821-9.613l-25.407,5.993L150.033,174.661z"/>
		<path id="path-15_33_" style="opacity:0.35;enable-background:new    ;" d="M103.08,184.092l24.365-5.747l0.618-1.883
			l-34.231-11.035l-28.096,6.627L103.08,184.092z"/>
		<path id="path-16_27_" style="fill:#142A3B;" d="M209.645,202.509L22.897,158.46l4.891-20.35l186.749,44.05L209.645,202.509z"/>
		<path id="path-17_24_" style="fill:#DB2C3F;" d="M177.962,19.482v3.099c0,0.598-0.492,1.083-1.099,1.083
			c-0.608,0-1.1-0.485-1.1-1.083v-0.143c0-0.598-0.493-1.083-1.1-1.083s-1.1,0.485-1.1,1.083v6.664c0,0.598-0.493,1.082-1.1,1.082
			c-0.608,0-1.1-0.484-1.1-1.082v-8.008v-8.803c0-0.598,0.492-1.082,1.1-1.082c0.607,0,1.1,0.484,1.1,1.082v1.849
			c0,0.598,0.493,1.082,1.1,1.082s1.1-0.484,1.1-1.082V5.338c0-0.598,0.492-1.082,1.1-1.082c0.607,0,1.099,0.484,1.099,1.082v2.08
			V19.482z"/>
		<path id="path-18_19_" style="fill:#DB2C3F;" d="M102.842,33.713v6.865c0,1.322-0.999,2.395-2.231,2.395S98.38,41.9,98.38,40.578
			v-0.321c0-1.323-0.999-2.396-2.23-2.396c-1.233,0-2.232,1.073-2.232,2.396v14.755c0,1.324-0.999,2.397-2.23,2.397
			c-1.232,0-2.231-1.073-2.231-2.397V37.28V17.791c0-1.323,0.999-2.396,2.231-2.396c1.231,0,2.23,1.073,2.23,2.396v4.095
			c0,1.323,0.999,2.397,2.232,2.397c1.231,0,2.23-1.074,2.23-2.397V2.397C98.38,1.073,99.379,0,100.611,0s2.231,1.073,2.231,2.397
			v4.606V33.713z"/>
		<path id="path-19_16_" style="fill:#FBB713;" d="M41.986,77.33c0,3.387,1.067,6.132,2.382,6.132c1.314,0,2.379-2.745,2.379-6.132
			V58.545c0-3.385-1.065-6.13-2.379-6.13c-1.315,0-2.382,2.745-2.382,6.13V77.33z"/>
		<path id="path-20_12_" style="fill:#FBB713;" d="M153.021,33.177c0,2.718,0.884,4.92,1.974,4.92s1.974-2.202,1.974-4.92V18.101
			c0-2.716-0.884-4.92-1.974-4.92s-1.974,2.204-1.974,4.92V33.177z"/>
		<path id="path-21_10_" style="fill:#FBB713;" d="M143.192,195.036h5.575c1.075,0,1.947,1.585,1.947,3.542
			c0,1.956-0.872,3.543-1.947,3.543h-0.259c-1.075,0-1.946,1.585-1.946,3.542s0.871,3.544,1.946,3.544h11.985
			c1.074,0,1.946,1.585,1.946,3.542c0,1.956-0.872,3.542-1.946,3.542H146.09h-15.83c-1.074,0-1.946-1.586-1.946-3.542
			c0-1.957,0.872-3.542,1.946-3.542h3.326c1.075,0,1.947-1.587,1.947-3.544s-0.872-3.542-1.947-3.542h-15.829
			c-1.075,0-1.947-1.587-1.947-3.543c0-1.957,0.872-3.542,1.947-3.542h3.741H143.192z"/>
		<path id="path-22_4_" style="fill:#FBB713;" d="M26.905,126.449c3.418,0,6.189-1.692,6.189-3.779c0-2.088-2.771-3.781-6.189-3.781
			H7.942c-3.418,0-6.188,1.693-6.188,3.781c0,2.087,2.77,3.779,6.188,3.779H26.905z"/>
	</g>
</g>
<g>
</g>
<g>
</g>
<g>
</g>
<g>
</g>
<g>
</g>
<g>
</g>
<g>
</g>
<g>
</g>
<g>
</g>
<g>
</g>
<g>
</g>
<g>
</g>
<g>
</g>
<g>
</g>
<g>
</g>
</svg>
