<svg xmlns="http://www.w3.org/2000/svg" viewBox="0 0 512 512"><defs><style>.cls-1{fill:#3e2945;}.cls-2{opacity:0.21;}.cls-3{fill:#3f3f44;}.cls-14,.cls-4{fill:#f7bf9a;}.cls-5{opacity:0.63;}.cls-6{fill:#f2a88f;}.cls-7{fill:#ccc;}.cls-8{opacity:0.51;}.cls-9{fill:#999;}.cls-10{opacity:0.46;}.cls-11{fill:#65c8d0;}.cls-12{fill:#f88f1c;}.cls-13{fill:#fed9be;}.cls-14{fill-rule:evenodd;}.cls-15{fill:#f79820;}.cls-16{fill:#90278e;}.cls-17{fill:#f9ac67;}.cls-18{fill:#f79c41;}.cls-19{fill:#8e3d7c;}.cls-20{fill:#d49f77;}.cls-21{fill:#fff;}.cls-22{fill:#f2f2f2;}.cls-23{fill:#543966;}.cls-24{opacity:0.35;}.cls-25{fill:#2a1d30;}.cls-26{fill:#ca6867;}.cls-27{fill:none;}.cls-28{fill:#e6e6e6;}</style></defs><title>cave, man, emoticon, emoji, sticker, hungry</title><g id="social_media" data-name="social media"><path class="cls-1" d="M76.85,141.25c2-20,35.68-36.36,35.68-36.36s-21,12-26.18,5.09,4-18.32,33.71-28.43c0,0-15.27-8.7-13-18.2s47.15,1.76,47.15,1.76-18.95-19.15-8.61-20.73,32.31,9.44,32.31,9.44-17.56-8-15.06-16.1,36.28,11.41,36.28,11.41-15.85-23.56-1.53-21.45c9.14,1.34,22.19,20.63,22.19,20.63S206.46,16.2,219.74,16,234.27,47.6,234.27,47.6,243,15.44,251.34,18.15s-7.8,29.45-7.8,29.45,45.31-35.76,52.87-23-19.78,21.27-22.54,22.54,35.7-12.19,39.87-1.06-15.27,16.29-22,18.5c0,0,48.5-6.75,50.81,4s-25.87,10.61-31.38,10.3c0,0,39.64,12.65,38.11,21s-10.81,4-25.92.91c0,0,25.83,10.06,25.42,21.63s-28-.69-28-.69,24.77,7.44,28.3,18.67S318.43,162,318.43,162H115S74.88,161.23,76.85,141.25Z"/><g class="cls-2"><ellipse class="cls-3" cx="214.85" cy="486.48" rx="96.41" ry="9.52"/></g><path class="cls-4" d="M251.07,448.14s-.9,34.2,9.27,36,33.51,6.46,37.4,0-3.42-21.16-25-24.91S251.07,448.14,251.07,448.14Z"/><path class="cls-4" d="M267.27,484.4c3.3.48,12.06-25.23,18.92-55.26H241.1C256.25,445.83,253.4,482.38,267.27,484.4Z"/><path class="cls-4" d="M177.62,449s.9,34.2-9.27,36-33.51,6.46-37.4,0,3.42-21.16,25-24.91S177.62,449,177.62,449Z"/><path class="cls-4" d="M161.62,485.22c-3.3.48-12.06-25.23-18.92-55.26h45.09C172.65,446.64,175.49,483.19,161.62,485.22Z"/><g class="cls-5"><polygon class="cls-6" points="252.25 452.95 271.3 441.69 281.35 448.54 285.74 436.62 266.38 432.01 249.24 445.29 252.25 452.95"/></g><g class="cls-5"><polygon class="cls-6" points="146.59 445.49 150.96 441.06 167.68 449.99 180.1 442 183.46 434.82 145.53 434.82 144.66 438.34 146.59 445.49"/></g><path class="cls-4" d="M361.12,264.52a12.5,12.5,0,0,1,8.23-15.64l8.59-2.66a12.5,12.5,0,0,1,15.64,8.23h0a12.49,12.49,0,0,1-8.23,15.63l-8.59,2.67a12.5,12.5,0,0,1-15.64-8.23Z"/><path class="cls-7" d="M372.15,271.7a102.38,102.38,0,0,0-42.33-32.05c-7.69-3.11-16.33-5.27-24.23-2.73a5.87,5.87,0,0,0-3.05,1.86,4.48,4.48,0,0,0,0,4.7,11.21,11.21,0,0,0,3.45,3.5,49.36,49.36,0,0,0,20.1,8.58c-4-1.53-8.42-2.77-12.57-1.65s-7.72,5.4-6.6,9.55a10.8,10.8,0,0,0,4,5.22c10.78,8.77,25.52,10.47,39.38,11.32,4.38.27,8.93.45,13-1.22a14.37,14.37,0,0,0,7.08.57,2.26,2.26,0,0,0,1.1-.45,2.41,2.41,0,0,0,.61-1.25,37.19,37.19,0,0,0,.89-4.75"/><path class="cls-7" d="M355.31,301.93c.62-10,4.13-20.23,11.79-26.63,2-1.65,4.22-3.05,5.7-5.15a19.12,19.12,0,0,0,2.39-5.71L378.29,254c.7-2.35,1.4-4.81,1-7.22a24.11,24.11,0,0,0-1.55-4.4,23.42,23.42,0,0,1-1.13-13l-1.31-.86,2.8-5.64c1.16-2.34,2.88-5,5.49-4.94a5.73,5.73,0,0,1,3.49,1.74,17,17,0,0,1,3.57,19.73c-1.31,2.55-3.28,4.72-4.65,7.24a36,36,0,0,0-2.81,7.88l-3.74,13.78a5.32,5.32,0,0,0-.25,2.68c.35,1.36,1.67,2.19,2.86,2.92,11.55,7,21.71,16.91,27.09,29.31s5.44,27.48-1.7,39c-3.49,5.61-9,10.39-15.51,11.24a12.78,12.78,0,0,1-6.36-1.12,45.87,45.87,0,0,1-23.4-20.11A54.12,54.12,0,0,1,355.31,301.93Z"/><g class="cls-8"><path class="cls-9" d="M378.22,254.23a5.54,5.54,0,0,0,3.9,4.08l1-3.78a36,36,0,0,1,2.81-7.88c1.37-2.52,3.33-4.69,4.65-7.24A17,17,0,0,0,387,219.67a5.73,5.73,0,0,0-3.49-1.74c-2.61-.09-4.33,2.6-5.49,4.94l-2.8,5.64,1.31.86a23.42,23.42,0,0,0,1.13,13,24.11,24.11,0,0,1,1.55,4.4c.43,2.42-.27,4.87-1,7.22Z"/></g><g class="cls-10"><path class="cls-9" d="M409.11,303.23c-5.38-12.4-15.55-22.28-27.09-29.31-1.2-.73-2.51-1.56-2.86-2.92a5.32,5.32,0,0,1,.25-2.68l2-7.2a9.57,9.57,0,0,1-3.78-2.11c.14,2.84,0,5.65,0,8.48.08,4.24,1.34,7,3.82,10.45,3.43,4.78,6.9,9.5,9.22,14.95,4.34,10.18,3.73,22.11,2.46,32.88-1.08,9.19-3.78,18.08-6.86,26.81a11.68,11.68,0,0,0,5.66.87c6.55-.85,12-5.64,15.51-11.24C414.55,330.71,414.5,315.63,409.11,303.23Z"/></g><path class="cls-7" d="M378.71,272.78l-.34-1a157.7,157.7,0,0,1,42.74-8.28c4.79-.25,10-.13,13.71,3,1,.81,1.81,2.15,1.21,3.25a3.15,3.15,0,0,1-2.37,1.24,46.16,46.16,0,0,1-8.28.7,30,30,0,0,1,19.14,6.61,8.4,8.4,0,0,1,3,3.71,3.53,3.53,0,0,1-1.39,4.2,5.28,5.28,0,0,1-3.35.13q-9-1.63-17.84-3.89c6.3,1.85,12.37,4.58,17,9.16a12.64,12.64,0,0,1,3.34,4.92,6.15,6.15,0,0,1-.8,5.7,8,8,0,0,1-4.22,2.37c-9,2.47-18.6-.93-26.6-5.7s-15.18-11-23.62-14.93a81.91,81.91,0,0,1-8.42-4,8.27,8.27,0,0,1-3.14-3A3.71,3.71,0,0,1,378.71,272.78Z"/><path class="cls-11" d="M360.35,196.72c.2.09.43-.12.44-.34a1,1,0,0,0-.25-.6c-1.51-2.11-3.42-4.44-6-4.41a2.24,2.24,0,0,0-2.22,1.35,2,2,0,0,0,.61,1.91,6,6,0,0,0,1.77,1.11c1.81.85,3.85,1.72,5.75,1.1"/><path class="cls-12" d="M434.52,363.59a2.55,2.55,0,0,1-1.92-.86l-5-5.57a65.06,65.06,0,0,0-5.93-6.11c-5.88-5.07-13.46-7.84-20.79-10.53a2.57,2.57,0,0,1,1.77-4.82c7.4,2.71,15.78,5.78,22.37,11.46a70.25,70.25,0,0,1,6.41,6.57l5,5.58a2.56,2.56,0,0,1-1.91,4.27Z"/><path class="cls-12" d="M423,349.93a2.56,2.56,0,0,1-1.79-4.4c3.34-3.25,6.71-7.23,10-11.08,1.3-1.53,2.57-3,3.82-4.46a2.57,2.57,0,0,1,3.86,3.38c-1.23,1.4-2.48,2.89-3.77,4.4l-1.5,1.76q3.42-1.45,6.89-2.75a2.56,2.56,0,1,1,1.79,4.8,161.34,161.34,0,0,0-18.1,8A2.58,2.58,0,0,1,423,349.93Z"/><path class="cls-12" d="M341.08,363.73a2.56,2.56,0,0,1-1.88-4.31l5.08-5.47a69.64,69.64,0,0,1,6.54-6.45c6.69-5.54,15.14-8.45,22.59-11a2.56,2.56,0,0,1,1.67,4.85c-7.38,2.54-15,5.17-21,10.12a66.35,66.35,0,0,0-6.05,6L343,362.92A2.56,2.56,0,0,1,341.08,363.73Z"/><path class="cls-12" d="M352.9,350.31a2.54,2.54,0,0,1-1.23-.31,162.27,162.27,0,0,0-17.94-8.41,2.57,2.57,0,0,1,1.89-4.77q3.44,1.36,6.84,2.89L341,337.9c-1.25-1.53-2.48-3-3.67-4.46a2.57,2.57,0,0,1,3.93-3.3c1.21,1.45,2.45,3,3.72,4.52,3.19,3.91,6.49,8,9.76,11.28a2.56,2.56,0,0,1-1.83,4.37Z"/><path class="cls-4" d="M277.52,284.82l-23.49-5-79.86,0-23.38,4.95c-14.34,4.24-24.66,22.83-24.66,44.42L130,402.77c25,29.81,142.24,28.66,165.41-4.05l6.71-69.46c0-21.6-10.32-40.2-24.65-44.43Zm0,0"/><path class="cls-13" d="M295.46,398.71l6.71-69.46c0-21.6-10.32-40.2-24.65-44.43h0l-23.49-5-79.86,0-23.38,4.95,93.34,24,51.33,89.93m-17.94-115.1"/><path class="cls-14" d="M150.6,272.22c-2.7,3.71-11.52,14.47-11.52,14.47s-84.42,63.77-73.81,79.72,108.88-60.87,107.25-63.6S150.6,272.22,150.6,272.22Z"/><path class="cls-14" d="M253.6,291.74c4.55-.64,18.17-3.43,18.17-3.43s95.79-44.94,104.95-28.11-104.62,67.93-106.27,65.22S253.6,291.74,253.6,291.74Z"/><ellipse class="cls-15" cx="247.84" cy="313.57" rx="7.98" ry="6.05" transform="translate(-140.18 217.72) rotate(-37.8)"/><path class="cls-16" d="M205.79,412.13c-6.43-2.56-17.11-5.79-13.88-8.37,3-2.36,12.64-10.76,19.71-16.93,4.48-3.91,11.51-4.82,16.28-2,3.7,2.21,8.11,4.88,12.1,7.38,9.15,5.73,2.62,11.39,2.62,11.39L237.91,406l-15.66,4.79S212.45,414.78,205.79,412.13Z"/><path class="cls-12" d="M161.88,384.71c-11.46,2.41-22.42,6.62-33.82,8.59,1.13,15.33,3.41,37,7.8,51.83l13-9.09,20,9,18.46-13.1,3.91,2.89-22.9-51.39C166.2,383.83,164,384.25,161.88,384.71Z"/><path class="cls-17" d="M290.64,374.58c-.64-.49-1.24-1-1.85-1.51a2.56,2.56,0,0,1-1.08-.95,53.43,53.43,0,0,1-16.34-24.49c-6.14-18.75-5.44-38.92-9.65-58.07a2.38,2.38,0,0,1,.71-2.32c-.28-2-.56-3.92-.85-5.87a61,61,0,0,0-12.25-1.63,2.44,2.44,0,0,1-.23,1.45c-1.49,2.94-2.92,5.91-4.36,8.87-2.55,15.66-12,47.49-12.69,47.65-.1,0-.17.11-.27.15l66.09,50.61c.2-2.15.37-4.18.51-6.11A16.24,16.24,0,0,1,290.64,374.58Z"/><path class="cls-12" d="M290.21,444.06l-1.4.52,1.22.55Z"/><path class="cls-18" d="M231.76,337.87c-3.68,1.54-31,27.19-32.39,28.17-10.15,7.45-19,15-31,17.37l22.9,51.39,14.55,10.73,19.78-10.09L249.34,450l20.57-14,18.89,8.54,1.4-.52c1-5.81,5.67-34.85,7.64-55.57Z"/><path class="cls-16" d="M271.36,347.64a102.44,102.44,0,0,1-3.17-12.7L262,337.63c-4.38,1.89-6.23,5.63-4.12,8.31l0,.05c2.11,2.68,8.59,4.88,14.39,4.88h.37C272.21,349.8,271.74,348.78,271.36,347.64Z"/><path class="cls-16" d="M283.12,367.7A147.51,147.51,0,0,0,266.45,376c-5.63,3.33-3.38,7.88-2.07,10.79s30.85,7.14,30.85,7.14,1-1.07,2.35-2.67c.43-4.17.76-8,.95-11.45A67.23,67.23,0,0,1,283.12,367.7Z"/><path class="cls-16" d="M295.46,408.92l-4.17-.06-7.6,0c-7.27,0-14.37.13-18.88.13-7.79,0-10.22,6.23-10.94,10.9-.44,2.8,3.45,7.11,7.88,9.55,5,2.73,22.48,3.83,30.13,4.19C292.92,426.91,294.25,418,295.46,408.92Z"/><path class="cls-16" d="M206.27,440.44s6-1,4.83-5.86c-.35-1.42-.56-2.86-.69-3.74-.35-2.3-1.95-3.95-5.57-5.21s-13.19-3.69-13.19-3.69-9.7-3.25-14.45-.54c-1.09.62-2.91,1.75-3.8,2.4-6,4.31,1,11.52,1,11.52l6.59,1.31,6.33-4.72,14,10.09Z"/><path class="cls-16" d="M153.59,418.73c3.69-.14,9.26-2.67,9.86-10.26s-9.87-9.68-9.87-9.68l-25.3-2.49c.55,6.83,1.31,14.65,2.37,22.45C137.21,418.79,150.81,418.84,153.59,418.73Z"/><path class="cls-16" d="M214.91,356c5.68-.49,10.29-1,11.6-1.45,2.4-.83,1-5.5-.62-9.54A84.12,84.12,0,0,1,214.91,356Z"/><path class="cls-16" d="M259.68,304.24a76.47,76.47,0,0,0-16.19-4.9c-.43,3.76-.83,7.59-1.33,11.37,1.66-.42,3.38-.9,5.18-1.48C260.95,304.85,259.68,304.24,259.68,304.24Z"/><ellipse class="cls-19" cx="217.78" cy="244.99" rx="67.03" ry="35.71"/><ellipse class="cls-20" cx="217.78" cy="237.25" rx="67.03" ry="35.71"/><path class="cls-4" d="M318.09,195.29c-6.45-31.66-10.27-68.77-33.06-95.79C236.59,42,146.5,71,122.64,128c-13.44,33-35.85,99.83,13.6,115.72C196.71,263,332.76,267.35,318.09,195.29Z"/><path class="cls-13" d="M171.29,128c11.67-27.85,39.19-49,69.93-56.65C194.62,58.8,140.36,85.68,122.64,128c-13.44,33-35.85,99.83,13.6,115.72,27.87,8.89,71.79,14.61,109.61,11.14-22.86-1.83-44.66-5.94-61-11.14C135.44,227.8,157.85,161,171.29,128Z"/><path class="cls-20" d="M109.51,136.35l.42.93a3.14,3.14,0,0,1-.17-.43C109.69,136.7,109.62,136.54,109.51,136.35Z"/><path class="cls-20" d="M110,137.34l0,.05-.07-.11A.14.14,0,0,1,110,137.34Z"/><path class="cls-20" d="M109.76,136.85a3.14,3.14,0,0,0,.17.43l.07.11C110.12,137.59,110,137.36,109.76,136.85Z"/><path class="cls-20" d="M316,136.35l-.42.93a3.61,3.61,0,0,0,.17-.43C315.78,136.7,315.85,136.54,316,136.35Z"/><path class="cls-20" d="M315.5,137.34l0,.05.07-.11S315.51,137.32,315.5,137.34Z"/><path class="cls-20" d="M315.7,136.85a3.61,3.61,0,0,1-.17.43l-.07.11C315.35,137.59,315.46,137.36,315.7,136.85Z"/><path class="cls-1" d="M356.18,239c-2.78-10.33-25-26-25-26,31,8,19.85-9.94,19.85-9.94-5.56-11.09-31.36-19.5-31.36-19.5,34.14-3.82,13.5-17.21,13.5-17.21-19.85-10.71-48.43-8.79-48.43-8.79,16.28-6.5,17.87-17.21,17.87-17.21-1.59-6.88-14.69-7.65-14.69-7.65-1.85.09-3.61.27-5.27.51-.56.08-1.06.2-1.59.3-1.07.19-2.14.37-3.14.61-.61.15-1.16.33-1.73.5-.85.24-1.7.48-2.49.76-.58.2-1.11.44-1.65.66-.71.29-1.42.57-2.09.89s-1,.52-1.51.78-1.2.64-1.76,1-.92.59-1.37.89-1,.69-1.48,1-.83.65-1.22,1-.84.71-1.23,1.07-.73.69-1.07,1c-.16.16-.34.32-.5.48l0,0a29.56,29.56,0,0,0-7.26,12.59c10.55,11.13-1,18.1-4,19.3s-14.64,15.22-37.85,15.22-34.9-14-37.85-15.22-14.56-8.17-4-19.3a29.56,29.56,0,0,0-7.26-12.59l0,0c-.15-.16-.34-.32-.5-.48q-.51-.52-1.07-1c-.39-.36-.8-.72-1.23-1.07s-.8-.65-1.22-1-1-.7-1.48-1-.89-.6-1.37-.89-1.16-.66-1.76-1-1-.53-1.51-.78-1.38-.6-2.09-.89c-.55-.22-1.08-.45-1.65-.66-.79-.28-1.64-.52-2.49-.76-.58-.17-1.13-.35-1.73-.5-1-.24-2.07-.43-3.14-.61-.54-.09-1-.22-1.59-.3-1.67-.24-3.42-.41-5.27-.51,0,0-13.1.77-14.69,7.65,0,0,1.59,10.71,17.87,17.21,0,0-28.58-1.91-48.43,8.79,0,0-20.64,13.38,13.5,17.21,0,0-25.81,8.41-31.36,19.5,0,0-11.12,18,19.85,9.94,0,0-22.23,15.68-25,26,0,0-4.76,13,21.44-1.53,0,0-9.93,12.24-13.5,23.71s3.35,12.77,15.17,6c0,0-10,12.73-10.81,21.91s1.67,28.15,23.86-3.13c0,0-6,24.55-1.24,34.49,0,0,6.35,5.35,10.32,1.53s7.15-12.24,6.75-16.82c0,0,4.76,22.94,19.85,29.06,0,0,11.12,3.06,13.1-17.2,0,0,6.35,14.14,17.87,18.35s17.47-2.3,17.07-17.21c0,0,5.2,22.7,24.56,22.7s26.62-22.7,26.62-22.7c-.39,14.91,5.56,21.41,17.07,17.21s17.87-18.35,17.87-18.35c2,20.27,13.1,17.2,13.1,17.2,15.08-6.12,19.85-29.06,19.85-29.06-.4,4.59,2.78,13,6.75,16.82s10.32-1.53,10.32-1.53C326,310.55,320,286,320,286c22.19,31.28,24.66,12.31,23.86,3.13s-10.81-21.91-10.81-21.91c11.82,6.77,18.74,5.47,15.17-6s-13.5-23.71-13.5-23.71C360.95,252,356.18,239,356.18,239Z"/><ellipse class="cls-21" cx="139.51" cy="141.21" rx="36.72" ry="36.72"/><circle class="cls-21" cx="283.73" cy="140.33" r="36.74"/><path class="cls-22" d="M283.72,165.23a36.71,36.71,0,0,1-36.21-30.82,36.74,36.74,0,1,0,72.43,0A36.72,36.72,0,0,1,283.72,165.23Z"/><path class="cls-22" d="M139.51,166.09a36.71,36.71,0,0,1-36.21-30.82,36.74,36.74,0,1,0,72.43,0A36.72,36.72,0,0,1,139.51,166.09Z"/><path class="cls-1" d="M144.63,160.38A8.57,8.57,0,1,1,153.2,169,8.57,8.57,0,0,1,144.63,160.38Z"/><path class="cls-1" d="M293.6,162a8.58,8.58,0,1,1,8.57,8.58A8.58,8.58,0,0,1,293.6,162Z"/><path class="cls-16" d="M216.08,411.16l2.1-.74h0c1.39-1.33,3-2.7,4.74-4.1l7.52-10,11-2.76,3.37-2.05-5-6.06s-36.79-4.78-41.06-3.85.93,17.74,1.2,19.69S216.08,411.16,216.08,411.16Z"/><path class="cls-23" d="M313.84,66.68C309.05,62.83,303,62,296.56,62.81a7.44,7.44,0,0,0-10.76-9,42,42,0,0,0-11.33,9.06,7.81,7.81,0,0,0-6.74-4.54c-13.1-1.16-22.23,17.45-24.35,27.9-1,4.71,2.66,8.75,7.3,9.23,2.74.28,5.47-.46,8.13-1.2,16.89-4.68,38.22-7.08,53.52-15.8C316.16,76.26,317.65,69.73,313.84,66.68Z"/><path class="cls-23" d="M110.46,68.25c4.79-3.84,10.82-4.72,17.28-3.87a7.44,7.44,0,0,1,10.76-9,42,42,0,0,1,11.33,9.06,7.81,7.81,0,0,1,6.74-4.54c13.1-1.16,22.23,17.45,24.35,27.9,1,4.71-2.66,8.75-7.3,9.23-2.74.28-5.47-.46-8.13-1.2C148.61,91.13,127.27,88.73,112,80,108.14,77.83,106.65,71.31,110.46,68.25Z"/><path class="cls-1" d="M186.74,368.92a1,1,0,0,1-.51-1.11q-.07-.75.78,0c.3.39-.07,1.56-.23,1.91a3.27,3.27,0,0,1-2.54,1.88c-1,.18-.6,1.78.44,1.59a5,5,0,0,0,4-4.19c.2-1.56-.84-4.38-2.92-3.38-1.63.78-1.53,3.55-.3,4.63s3.56-.08,2.87-1.79c-.39-1-2-.55-1.59.44Z"/><path class="cls-1" d="M175.22,361.9a5.25,5.25,0,0,0,1.63-4.57c-.16-1.19-1-3.29-2.52-2.93s-1.24,2.18-.67,3.16a5.68,5.68,0,0,0,4.41,2.69c1.06.12,1-1.53,0-1.65a4,4,0,0,1-2.26-1,3.45,3.45,0,0,1-.72-.88c-.3-.58-.35-.85-.13,0a3.71,3.71,0,0,1-.91,4.06c-.78.73.39,1.9,1.17,1.17Z"/><path class="cls-1" d="M176.49,338.57c-.24,1.52-.43,3.25.81,4.41a2.29,2.29,0,0,0,3.05.27,2.12,2.12,0,0,0,.33-2.64c-.84-1.23-2.26-.53-3.15.2s.35,1.84,1.17,1.17c-.71.58-.65-2.77-.62-3,.16-1-1.43-1.49-1.59-.44Z"/><path class="cls-1" d="M212,344c-.24,1.52-.43,3.25.81,4.41a2.29,2.29,0,0,0,3.05.27,2.12,2.12,0,0,0,.33-2.64c-.84-1.23-2.26-.53-3.15.2s.35,1.84,1.17,1.17c-.71.58-.65-2.77-.62-3,.16-1-1.43-1.49-1.59-.44Z"/><path class="cls-1" d="M285.78,343.08c-.24,1.52-.43,3.25.81,4.41a2.29,2.29,0,0,0,3.05.27,2.12,2.12,0,0,0,.33-2.64c-.84-1.23-2.26-.53-3.15.2s.35,1.84,1.17,1.17c-.71.58-.65-2.77-.62-3,.16-1-1.43-1.49-1.59-.44Z"/><path class="cls-1" d="M173.57,365.46c0,1.62.27,3.31,1.95,4a2.43,2.43,0,0,0,3.19-1.27c1.17-2.73-3-4.14-3.8-1.42a.83.83,0,0,0,1.59.44v.8a1.07,1.07,0,0,1-1.06-.82,3.36,3.36,0,0,1-.24-1.72.83.83,0,0,0-1.65,0Z"/><path class="cls-1" d="M188.65,344.54c0,1.62.27,3.31,1.95,4a2.43,2.43,0,0,0,3.19-1.27c1.17-2.73-3-4.14-3.8-1.42a.83.83,0,0,0,1.59.44v.8a1.07,1.07,0,0,1-1.06-.82,3.36,3.36,0,0,1-.24-1.72.83.83,0,0,0-1.65,0Z"/><path class="cls-1" d="M186.38,336.19c0,1.62.27,3.31,1.95,4a2.43,2.43,0,0,0,3.19-1.27c1.17-2.73-3-4.14-3.8-1.42a.83.83,0,0,0,1.59.44v.8a1.07,1.07,0,0,1-1.06-.82,3.36,3.36,0,0,1-.24-1.72.83.83,0,0,0-1.65,0Z"/><path class="cls-1" d="M179.77,352.3c.68-1.43,1.16-3,0-4.37a2.44,2.44,0,0,0-3.42-.4c-2.42,1.91.87,5.22,2.7,3,.68-.81-.49-2-1.17-1.17q1.05-.68,1,.57a4.19,4.19,0,0,1-.52,1.52c-.45,1,1,1.8,1.43.83Z"/><path class="cls-1" d="M201.42,361.2c.68-1.43,1.16-3,0-4.37a2.44,2.44,0,0,0-3.42-.4c-2.42,1.91.87,5.22,2.7,3,.68-.81-.49-2-1.17-1.17q1.05-.68,1,.57a4.19,4.19,0,0,1-.52,1.52c-.45,1,1,1.8,1.43.83Z"/><path class="cls-1" d="M169.36,358.25c.68-1.43,1.16-3,0-4.37a2.44,2.44,0,0,0-3.42-.4c-2.42,1.91.87,5.22,2.7,3,.68-.81-.49-2-1.17-1.17q1.05-.68,1,.57a4.19,4.19,0,0,1-.52,1.52c-.45,1,1,1.8,1.43.83Z"/><path class="cls-1" d="M198.83,346.23c0,1.62.27,3.31,1.95,4a2.43,2.43,0,0,0,3.19-1.27c1.17-2.73-3-4.14-3.8-1.42a.83.83,0,0,0,1.59.44v.8a1.07,1.07,0,0,1-1.06-.82,3.36,3.36,0,0,1-.24-1.72.83.83,0,0,0-1.65,0Z"/><path class="cls-1" d="M274.85,348.16c0,1.62.27,3.31,1.95,4a2.43,2.43,0,0,0,3.19-1.27c1.17-2.73-3-4.14-3.8-1.42a.83.83,0,0,0,1.59.44v.8a1.07,1.07,0,0,1-1.06-.82,3.36,3.36,0,0,1-.24-1.72.83.83,0,0,0-1.65,0Z"/><path class="cls-1" d="M167.4,375.56c.25,1.66.7,3.48,2.37,4.23a2.42,2.42,0,0,0,3.29-1.07,2,2,0,0,0-.93-2.73c-1.53-.69-2.87.47-3.77,1.59-.66.82.5,2,1.17,1.17a6.24,6.24,0,0,1,.65-.76l.8-.52q-.07,1.48-.81.51c-.92-.56-1-1.9-1.17-2.87s-1.75-.6-1.59.44Z"/><path class="cls-1" d="M164.56,348.7c.87-1.64,1.46-3.6.51-5.35-.55-1-2.13-2.38-3.28-1.41s-.4,2.6.3,3.48c1.33,1.69,3.46,2.06,5.49,1.93,1.06-.07,1.06-1.72,0-1.65s-4.09,0-4.46-1.69c-.22-1,.77,1,.79,1.13a4.9,4.9,0,0,1-.78,2.73c-.5.94.93,1.77,1.43.83Z"/><path class="cls-1" d="M153.79,353.9a2.87,2.87,0,0,1-1.15,1.21q.19-1.32.58-.17c.65.95,0,1.85-.69,2.6s.46,2,1.17,1.17c1.18-1.31,2.08-3.21,1-4.86a2.35,2.35,0,0,0-3.53-.61,2,2,0,0,0,.19,3.29c1.63.92,3.12-.5,3.91-1.79.56-.91-.87-1.74-1.43-.83Z"/><path class="cls-1" d="M187.13,354.52a2.87,2.87,0,0,1-1.15,1.21q.19-1.32.58-.17c.65.95,0,1.85-.69,2.6s.46,2,1.17,1.17c1.18-1.31,2.08-3.21,1-4.86a2.35,2.35,0,0,0-3.53-.61,2,2,0,0,0,.19,3.29c1.63.92,3.12-.5,3.91-1.79.56-.91-.87-1.74-1.43-.83Z"/><path class="cls-1" d="M161.73,369c1.58-1.18,3-2.93,2.46-5-.34-1.38-2-3-3.21-1.45-2.47,3.12,2.25,7.86,5.27,4.9.76-.75-.41-1.91-1.17-1.17-1.41,1.38-3.26-.46-3-2.06s.53.89.49,1.11a3.92,3.92,0,0,1-1.7,2.28c-.84.63,0,2.06.83,1.43Z"/><path class="cls-1" d="M282.63,339.26l-.06-.1-.13,1,.12-.13-.8.21.16,0-.61-.8c0,.41-1.4,1.05-1.61,1.11a1,1,0,0,1-1.28-.24.93.93,0,0,1-.49-.84l.66.2a3.35,3.35,0,0,1,.07,1.49,3.57,3.57,0,0,1-.9,1.76c-.7.79.46,2,1.17,1.17,1.37-1.54,2.07-4.1.77-5.93a1.84,1.84,0,0,0-3.32.6,2.84,2.84,0,0,0,2.38,3.48c1.47.2,4.34-1,4.21-2.8a.85.85,0,0,0-.61-.8,1,1,0,0,0-1.09.31.84.84,0,0,0-.13,1l.06.1c.56.9,2,.07,1.43-.83Z"/><path class="cls-1" d="M284.53,358.19q-.69,1.1-1.45-.12a2.28,2.28,0,0,1,.2-1.49c.69-1.17,1.47-.27,1.64.69.34,1.85-1.1,3.7-3.06,3-1-.37-1.43,1.23-.44,1.59a3.89,3.89,0,0,0,5.13-3.18c.32-1.79-.75-5.23-3.22-4.39-1.88.64-2.54,3.72-1.37,5.19s3.78,1.1,4.16-.82c.21-1-1.39-1.48-1.59-.44Z"/><g class="cls-24"><path class="cls-25" d="M172.9,186.32c2.95,1.17,14.64,15.22,37.85,15.22s34.9-14,37.85-15.22S267.3,177.1,257,166c.12,1.07-.76,3.65-2.36,5.72a16.6,16.6,0,0,1-6,4.36c-2.95,1.17-14.64,15.22-37.85,15.22s-34.9-14-37.85-15.22a18.66,18.66,0,0,1-5-3.22c-1.83-1.8-2.64-4-3.45-4.72C154.11,179.24,169.91,185.13,172.9,186.32Z"/></g><path class="cls-26" d="M192.72,255a31.27,31.27,0,0,0,4.43-5.9c7.85-13.63,4.23-30.43-8.09-37.53s-28.68-1.81-36.53,11.82a30.65,30.65,0,0,0-4.1,14,72.89,72.89,0,0,0,28.16,14.7A94.12,94.12,0,0,0,192.72,255Z"/><path class="cls-23" d="M213.46,263.19A102.31,102.31,0,0,1,194,261.46a100.37,100.37,0,0,1-26-9.08,118.57,118.57,0,0,1-20.93-13.46,3.74,3.74,0,1,1,4.68-5.82,111.24,111.24,0,0,0,19.61,12.61,93,93,0,0,0,24.08,8.41c19,3.66,38.54.41,57.49-2.73a3.74,3.74,0,0,1,1.22,7.37C241.4,260.88,227.47,263.19,213.46,263.19Z"/><path class="cls-18" d="M338.85,244a8.25,8.25,0,0,1,5.1-8.86c3.36-1.24,7.12-.12,10.67-.62s6.42-2.44,9.54-3.94,6.79-2.57,10-1.22c2.49,1.06,4.17,3.38,6.21,5.15a23.44,23.44,0,0,0,10,4.69c4.77,1.14,10.53,2,12.62,6.41,1.09,2.33.79,5.05.24,7.56-1,4.63-2.91,9.22-6.33,12.5s-8.56,5-13.06,3.52c-5.77-1.94-8.78-8.29-13.83-11.71-6.78-4.58-15.77-3.12-23.89-4.11a9.89,9.89,0,0,1-5.23-1.83c-2.63-2.19-2.73-6.13-2.61-9.55"/><path class="cls-27" d="M365.82,233.61l1-.07a3.17,3.17,0,0,1-1.55,3.91,2.5,2.5,0,0,1,.94-4"/><path class="cls-27" d="M370.66,234.61a2,2,0,0,1,1.34,2.12,5,5,0,0,1-1.05,2.48,1.31,1.31,0,0,1-.57.54c-.67.24-1.2-.61-1.29-1.32a5.11,5.11,0,0,1,1-3.62c.19-.25.46-.51.78-.46s.43.6.11.65"/><path class="cls-1" d="M367,249.57c3.1.28,5.49,2.72,7.73,4.87a74.72,74.72,0,0,0,9.4,7.66c2.39,1.64,5.26,3.21,8,2.4,2.42-.7,4-3.1,4.5-5.57a17.1,17.1,0,0,0-.7-7.45c-.62-2.31-1.48-4.76-3.45-6.11a10.12,10.12,0,0,0-4.85-1.35,33.58,33.58,0,0,0-10.76.47,17,17,0,0,0-9.2,5.34"/><path class="cls-1" d="M355.19,239.52a15.89,15.89,0,0,0-5.33-2.71,4.34,4.34,0,0,0-3.27.05c-1.19.66-1.63,2.14-1.89,3.48s-.51,2.89-.67,4.36a3.28,3.28,0,0,0,.56,2.74,3.37,3.37,0,0,0,2.35.65,3.93,3.93,0,0,0,4.71-2.69c.94-1.93,2.61-3.95,3.55-5.88h0"/><path class="cls-18" d="M351.1,249.15c1.19-2,2.7-3.77,3.75-5.83,1.16-2.27,1.71-4.8,2.69-7.15s2.53-4.66,4.9-5.6l-.65-.29a11.76,11.76,0,0,0,8.47-.35c1.19-.52,2.38-1.27,3.68-1.18,2.67.17,3.77,3.38,5.3,5.57,2.25,3.22,6.23,4.66,9.92,6a1.62,1.62,0,0,1,1,.66c.31.62-1.11,1.53-1.48,1.78-2.85,1.91-6.16.27-10.33,1.24-2.08.49-4.17,2-8.36,5.16a37.51,37.51,0,0,0-5.7,4.75c-4.59,5-4.56,8.66-9.2,13.38-1,1-2.4,2-3.78,1.62-1.23-.37-1.87-1.72-2.24-2.95A21.22,21.22,0,0,1,351.1,249.15Z"/><path class="cls-28" d="M363.8,192.55c5.69-.26,9.82,6.48,10.58,7.79,3.34,5.76,2.37,11.67,1.05,19.69-.83,5.07-1.55,8-4,11s-6.58,5-10.46,4.28c-3.25-.59-5.94-2.89-8-5.47A23.42,23.42,0,0,1,348,216c0-6.34,2.95-10.66,5.43-14.34C356.63,196.93,359.45,192.75,363.8,192.55Z"/><path class="cls-7" d="M351.12,227.07c.14.24.27.5.42.73,2.31,3.65,5.68,7.06,10,7.59,3.85.47,7.72-1.59,10.12-4.64a17.25,17.25,0,0,0,2.91-5.87C366.56,228.55,358.75,230.71,351.12,227.07Z"/><path class="cls-16" d="M391.52,214.18c4.86-8.29,10.89-16.17,19-21.31s18.64-7.17,27.53-3.49a6.87,6.87,0,0,1,3.1,2.15,2.89,2.89,0,0,1,0,3.53,4.36,4.36,0,0,1-2,1L429.64,199c-1.83.56-4.07,1.75-3.76,3.63.27,1.62,2.21,2.23,3.79,2.68a24,24,0,0,1,14.84,12.59,3.85,3.85,0,0,1,.5,2.49,2.86,2.86,0,0,1-3.23,1.81,8.33,8.33,0,0,1-3.59-1.8L432.14,216c-1.33-1-3.23-1.94-4.49-.88-1.52,1.28-.24,3.69.94,5.28a33,33,0,0,1,4.74,9.09,6.76,6.76,0,0,1,.45,3.48,2.68,2.68,0,0,1-2.39,2.24c-1.39,0-2.32-1.36-3.08-2.52a31.34,31.34,0,0,0-10.88-10.1,2.21,2.21,0,0,0-1.88-.37,1.87,1.87,0,0,0-.92,1.47c-.4,2.38.93,4.65,1.86,6.88s1.32,5.15-.48,6.76l-5.24-6.75a3.3,3.3,0,0,0-1.53-1.3c-1.79-.52-2.91,2-2.59,3.89s1.18,3.9.11,5.43c-1.49,2.15-5,.83-6.61-1.25s-2.63-4.83-5-5.89c-1.32-.58-2.89-.55-4.08-1.37a5.28,5.28,0,0,1-1.9-3.21c-1.11-4.58.54-9.41,2.89-13.5"/><path class="cls-23" d="M429.67,205.33c-1.58-.45-3.53-1.06-3.79-2.68-.31-1.89,1.93-3.07,3.76-3.63l9.54-2.93a4.36,4.36,0,0,0,2-1,2.89,2.89,0,0,0,0-3.53,6.87,6.87,0,0,0-3.1-2.15c-.28-.12-.56-.21-.84-.31-.26,1.39-1.45,2.78-3.43,4.07-3.08,2-7.8,3.34-9.19,7-1.81,4.81,5.65,8.86,9,11a1,1,0,0,1-.45,1.72c-2.48.34-5.92.56-7.43,2.92-1.81,2.84.14,2.87-.34,5.05a3.46,3.46,0,0,1-3.56,2.46c-2.89-.16-4-4.28-6.7-3-1.86.9-1.25,2.81-3.34,3.5s-4.24-1-6,.68c-.7.64-1,2.19-1.37,3a31.63,31.63,0,0,1-3.1,6.66,6.92,6.92,0,0,1-1.95,1.91c.28.44.57.88.88,1.28,1.6,2.08,5.11,3.4,6.61,1.25,1.07-1.53.21-3.59-.11-5.43s.79-4.41,2.59-3.89a3.3,3.3,0,0,1,1.53,1.3l5.24,6.75c1.8-1.6,1.41-4.53.48-6.76s-2.26-4.5-1.86-6.88a1.86,1.86,0,0,1,.92-1.47,2.21,2.21,0,0,1,1.88.37,31.34,31.34,0,0,1,10.88,10.1c.76,1.16,1.7,2.52,3.08,2.52a2.68,2.68,0,0,0,2.39-2.24,6.77,6.77,0,0,0-.45-3.48,33,33,0,0,0-4.74-9.09c-1.18-1.59-2.46-4-.94-5.28,1.26-1.06,3.15-.09,4.49.88l6.06,4.41a8.33,8.33,0,0,0,3.59,1.8,2.86,2.86,0,0,0,3.23-1.81,3.85,3.85,0,0,0-.5-2.49A24,24,0,0,0,429.67,205.33Z"/><path class="cls-1" d="M372.1,221.89a2.91,2.91,0,0,1-4.25.73,3.18,3.18,0,0,1-.22-4.41,3,3,0,0,1,4.3-.07,2.77,2.77,0,0,1,.14,3.56"/><path class="cls-28" d="M398.2,220.5c-.58-2.18-3.33-11.61-9.92-13.76a7,7,0,0,0-3.7-.3c-3.39.71-5.23,4.15-6.43,6.47A30,30,0,0,0,376,233.49c1.32,3.8,3.09,7.62,6.2,10.16s7.89,3.42,11.17,1.09a11.66,11.66,0,0,0,3.7-5.27A30.1,30.1,0,0,0,398.2,220.5Z"/><path class="cls-7" d="M384.9,240.42a16.49,16.49,0,0,1-6-.26c.2.3.39.61.6.89,2.77,3.68,7.75,6.11,12.07,4.51,4.16-1.54,6.33-6.15,7.18-10.5a32.15,32.15,0,0,0,.52-4.35C395.35,235.25,390.76,239.53,384.9,240.42Z"/><path class="cls-1" d="M383,225.17a2.46,2.46,0,0,1-3.84,1.07,3.32,3.32,0,0,1-.91-1.83c-.21-1.1.05-3.09,1.43-3.61a3.11,3.11,0,0,1,3.67,2.11"/><path class="cls-27" d="M359.76,194.2a19.5,19.5,0,0,1,.89-8.72,10.07,10.07,0,0,1,6-6.11c.93,2.33-.11,5-1.63,7s-3.52,3.61-4.92,5.69"/><path class="cls-11" d="M413.37,243.37a11.81,11.81,0,0,1,6.61,6.84c.29.8.38,1.92-.39,2.3s-1.47-.22-2-.77a19.09,19.09,0,0,1-4.59-8.11"/><path class="cls-11" d="M411.17,261c.24-.82,1.49-.36,2.1.25,2.5,2.48,5,5.51,4.86,9,0,.72-.33,1.59-1,1.7a1.57,1.57,0,0,1-1-.27,7.82,7.82,0,0,1-3.35-4.45,22.55,22.55,0,0,1-.85-5.61c0-.19-.07-.44-.26-.47s-.15.39,0,.26"/></g></svg>