<svg xmlns="http://www.w3.org/2000/svg" viewBox="0 0 512 512"><defs><style>.cls-1{opacity:0.21;}.cls-2{fill:#3f3f44;}.cls-3,.cls-8{fill:#f7bf9a;}.cls-4{opacity:0.63;}.cls-5{fill:#f2a88f;}.cls-6{fill:#3e2945;}.cls-7{fill:#fed9be;}.cls-8{fill-rule:evenodd;}.cls-9{fill:#f79820;}.cls-10{fill:#90278e;}.cls-11{fill:#f88f1c;}.cls-12{fill:#f9ac67;}.cls-13{fill:#f79c41;}.cls-14{fill:#8e3d7c;}.cls-15{fill:#d49f77;}.cls-16{fill:#fff;}.cls-17{fill:#543966;}.cls-18{opacity:0.35;}.cls-19{fill:#2a1d30;}.cls-20{fill:#84575d;}.cls-21{fill:#ca6867;}.cls-22{fill:#f2f2f2;}.cls-23{fill:#ccc;}.cls-24{fill:#999;}.cls-25{fill:#e6e6e6;}.cls-26{fill:none;}</style></defs><title>cave, man, emoticon, emoji, sticker, music</title><g id="social_media" data-name="social media"><g class="cls-1"><ellipse class="cls-2" cx="211.57" cy="486.48" rx="96.41" ry="9.52"/></g><path class="cls-3" d="M247.78,448.14s-.9,34.2,9.27,36,33.51,6.46,37.4,0-3.42-21.16-25-24.91S247.78,448.14,247.78,448.14Z"/><path class="cls-3" d="M264,484.4c3.3.48,12.06-25.23,18.92-55.26H237.82C253,445.83,250.11,482.38,264,484.4Z"/><path class="cls-3" d="M174.33,449s.9,34.2-9.27,36-33.51,6.46-37.4,0,3.42-21.16,25-24.91S174.33,449,174.33,449Z"/><path class="cls-3" d="M158.33,485.22C155,485.7,146.27,460,139.41,430H184.5C169.36,446.64,172.21,483.19,158.33,485.22Z"/><g class="cls-4"><polygon class="cls-5" points="248.96 452.95 268.01 441.69 278.06 448.54 282.45 436.62 263.1 432.01 245.96 445.29 248.96 452.95"/></g><g class="cls-4"><polygon class="cls-5" points="143.3 445.49 147.67 441.06 164.39 449.99 176.81 442 180.17 434.82 142.24 434.82 141.37 438.34 143.3 445.49"/></g><path class="cls-6" d="M73.56,141.25c2-20,35.68-36.36,35.68-36.36s-21,12-26.18,5.09,4-18.32,33.71-28.43c0,0-15.27-8.7-13-18.2S151,65.09,151,65.09,132,45.95,142.34,44.36s32.31,9.44,32.31,9.44-17.56-8-15.06-16.1,36.28,11.41,36.28,11.41S180,25.55,194.34,27.66c9.14,1.34,22.19,20.63,22.19,20.63S203.18,16.2,216.45,16,231,47.6,231,47.6,239.72,15.44,248,18.15s-7.8,29.45-7.8,29.45,45.31-35.76,52.87-23-19.78,21.27-22.54,22.54,35.7-12.19,39.87-1.06-15.27,16.29-22,18.5c0,0,48.5-6.75,50.81,4s-25.87,10.61-31.38,10.3c0,0,39.64,12.65,38.11,21s-10.81,4-25.92.91c0,0,25.83,10.06,25.42,21.63s-28-.69-28-.69,24.77,7.44,28.3,18.67S315.15,162,315.15,162H111.74S71.59,161.23,73.56,141.25Z"/><path class="cls-3" d="M274.23,284.82l-23.49-5-79.86,0-23.38,4.95c-14.34,4.24-24.66,22.83-24.66,44.42l3.92,73.52c25,29.81,142.24,28.66,165.41-4.05l6.71-69.46c0-21.6-10.32-40.2-24.65-44.43Zm0,0"/><path class="cls-7" d="M292.17,398.71l6.71-69.46c0-21.6-10.32-40.2-24.65-44.43h0l-23.49-5-79.86,0-23.38,4.95,93.34,24,51.33,89.93m-17.94-115.1"/><path class="cls-8" d="M287.66,250c1.35,4.39,6.26,17.39,6.26,17.39s59.52,87.48,44.35,99.18S254.66,274,257.08,272,287.66,250,287.66,250Z"/><ellipse class="cls-9" cx="244.56" cy="313.57" rx="7.98" ry="6.05" transform="translate(-140.87 215.71) rotate(-37.8)"/><path class="cls-10" d="M202.51,412.13c-6.43-2.56-17.11-5.79-13.88-8.37,3-2.36,12.64-10.76,19.71-16.93,4.48-3.91,11.51-4.82,16.28-2,3.7,2.21,8.11,4.88,12.1,7.38,9.15,5.73,2.62,11.39,2.62,11.39L234.63,406,219,410.74S209.17,414.78,202.51,412.13Z"/><path class="cls-11" d="M158.59,384.71c-11.46,2.41-22.42,6.62-33.82,8.59,1.13,15.33,3.41,37,7.8,51.83l13-9.09,20,9,18.46-13.1L188,434.8l-22.9-51.39C162.92,383.83,160.75,384.25,158.59,384.71Z"/><path class="cls-12" d="M287.36,374.58c-.64-.49-1.24-1-1.85-1.51a2.56,2.56,0,0,1-1.08-.95,53.43,53.43,0,0,1-16.34-24.49c-6.14-18.75-5.44-38.92-9.65-58.07a2.38,2.38,0,0,1,.71-2.32c-.28-2-.56-3.92-.85-5.87A61,61,0,0,0,246,279.75a2.44,2.44,0,0,1-.23,1.45c-1.49,2.94-2.92,5.91-4.36,8.87-2.55,15.66-12,47.49-12.69,47.65-.1,0-.17.11-.27.15l66.09,50.61c.2-2.15.37-4.18.51-6.11A16.24,16.24,0,0,1,287.36,374.58Z"/><path class="cls-11" d="M286.92,444.06l-1.4.52,1.22.55Z"/><path class="cls-13" d="M228.47,337.87c-3.68,1.54-31,27.19-32.39,28.17-10.15,7.45-19,15-31,17.37L188,434.8l14.55,10.73,19.78-10.09L246.05,450l20.57-14,18.89,8.54,1.4-.52c1-5.81,5.67-34.85,7.64-55.57Z"/><path class="cls-10" d="M268.08,347.64a102.44,102.44,0,0,1-3.17-12.7l-6.24,2.69c-4.38,1.89-6.23,5.63-4.12,8.31l0,.05c2.11,2.68,8.59,4.88,14.39,4.88h.37C268.92,349.8,268.45,348.78,268.08,347.64Z"/><path class="cls-10" d="M279.83,367.7A147.51,147.51,0,0,0,263.16,376c-5.63,3.33-3.38,7.88-2.07,10.79s30.85,7.14,30.85,7.14,1-1.07,2.35-2.67c.43-4.17.76-8,.95-11.45A67.23,67.23,0,0,1,279.83,367.7Z"/><path class="cls-10" d="M292.17,408.92l-4.17-.06-7.6,0c-7.27,0-14.37.13-18.88.13-7.79,0-10.22,6.23-10.94,10.9-.44,2.8,3.45,7.11,7.88,9.55,5,2.73,22.48,3.83,30.13,4.19C289.63,426.91,291,418,292.17,408.92Z"/><path class="cls-10" d="M203,440.44s6-1,4.83-5.86c-.35-1.42-.56-2.86-.69-3.74-.35-2.3-1.95-3.95-5.57-5.21s-13.19-3.69-13.19-3.69-9.7-3.25-14.45-.54c-1.09.62-2.91,1.75-3.8,2.4-6,4.31,1,11.52,1,11.52l6.59,1.31,6.33-4.72L198,442Z"/><path class="cls-10" d="M150.31,418.73c3.69-.14,9.26-2.67,9.86-10.26s-9.87-9.68-9.87-9.68L125,396.31c.55,6.83,1.31,14.65,2.37,22.45C133.92,418.79,147.53,418.84,150.31,418.73Z"/><path class="cls-10" d="M211.62,356c5.68-.49,10.29-1,11.6-1.45,2.4-.83,1-5.5-.62-9.54A84.12,84.12,0,0,1,211.62,356Z"/><path class="cls-10" d="M256.39,304.24a76.47,76.47,0,0,0-16.19-4.9c-.43,3.76-.83,7.59-1.33,11.37,1.66-.42,3.38-.9,5.18-1.48C257.66,304.85,256.39,304.24,256.39,304.24Z"/><path class="cls-10" d="M212.79,411.16l2.1-.74h0c1.39-1.33,3-2.7,4.74-4.1l7.52-10,11-2.76,3.37-2.05-5-6.06s-36.79-4.78-41.06-3.85.93,17.74,1.2,19.69S212.79,411.16,212.79,411.16Z"/><path class="cls-6" d="M183.45,368.92a1,1,0,0,1-.51-1.11q-.07-.75.78,0c.3.39-.07,1.56-.23,1.91a3.27,3.27,0,0,1-2.54,1.88c-1,.18-.6,1.78.44,1.59a5,5,0,0,0,4-4.19c.2-1.56-.84-4.38-2.92-3.38-1.63.78-1.53,3.55-.3,4.63s3.56-.08,2.87-1.79c-.39-1-2-.55-1.59.44Z"/><path class="cls-6" d="M171.93,361.9a5.25,5.25,0,0,0,1.63-4.57c-.16-1.19-1-3.29-2.52-2.93s-1.24,2.18-.67,3.16a5.68,5.68,0,0,0,4.41,2.69c1.06.12,1-1.53,0-1.65a4,4,0,0,1-2.26-1,3.45,3.45,0,0,1-.72-.88c-.3-.58-.35-.85-.13,0a3.71,3.71,0,0,1-.91,4.06c-.78.73.39,1.9,1.17,1.17Z"/><path class="cls-6" d="M173.2,338.57c-.24,1.52-.43,3.25.81,4.41a2.29,2.29,0,0,0,3.05.27,2.12,2.12,0,0,0,.33-2.64c-.84-1.23-2.26-.53-3.15.2s.35,1.84,1.17,1.17c-.71.58-.65-2.77-.62-3,.16-1-1.43-1.49-1.59-.44Z"/><path class="cls-6" d="M208.71,344c-.24,1.52-.43,3.25.81,4.41a2.29,2.29,0,0,0,3.05.27,2.12,2.12,0,0,0,.33-2.64c-.84-1.23-2.26-.53-3.15.2s.35,1.84,1.17,1.17c-.71.58-.65-2.77-.62-3,.16-1-1.43-1.49-1.59-.44Z"/><path class="cls-6" d="M282.5,343.08c-.24,1.52-.43,3.25.81,4.41a2.29,2.29,0,0,0,3.05.27,2.12,2.12,0,0,0,.33-2.64c-.84-1.23-2.26-.53-3.15.2s.35,1.84,1.17,1.17c-.71.58-.65-2.77-.62-3,.16-1-1.43-1.49-1.59-.44Z"/><path class="cls-6" d="M170.28,365.46c0,1.62.27,3.31,1.95,4a2.43,2.43,0,0,0,3.19-1.27c1.17-2.73-3-4.14-3.8-1.42a.83.83,0,0,0,1.59.44v.8a1.07,1.07,0,0,1-1.06-.82,3.36,3.36,0,0,1-.24-1.72.83.83,0,0,0-1.65,0Z"/><path class="cls-6" d="M185.36,344.54c0,1.62.27,3.31,1.95,4a2.43,2.43,0,0,0,3.19-1.27c1.17-2.73-3-4.14-3.8-1.42a.83.83,0,0,0,1.59.44v.8a1.07,1.07,0,0,1-1.06-.82,3.36,3.36,0,0,1-.24-1.72.83.83,0,0,0-1.65,0Z"/><path class="cls-6" d="M183.09,336.19c0,1.62.27,3.31,1.95,4a2.43,2.43,0,0,0,3.19-1.27c1.17-2.73-3-4.14-3.8-1.42a.83.83,0,0,0,1.59.44v.8a1.07,1.07,0,0,1-1.06-.82,3.36,3.36,0,0,1-.24-1.72.83.83,0,0,0-1.65,0Z"/><path class="cls-6" d="M176.49,352.3c.68-1.43,1.16-3,0-4.37a2.44,2.44,0,0,0-3.42-.4c-2.42,1.91.87,5.22,2.7,3,.68-.81-.49-2-1.17-1.17q1.05-.68,1,.57a4.19,4.19,0,0,1-.52,1.52c-.45,1,1,1.8,1.43.83Z"/><path class="cls-6" d="M198.14,361.2c.68-1.43,1.16-3,0-4.37a2.44,2.44,0,0,0-3.42-.4c-2.42,1.91.87,5.22,2.7,3,.68-.81-.49-2-1.17-1.17q1.05-.68,1,.57a4.19,4.19,0,0,1-.52,1.52c-.45,1,1,1.8,1.43.83Z"/><path class="cls-6" d="M166.07,358.25c.68-1.43,1.16-3,0-4.37a2.44,2.44,0,0,0-3.42-.4c-2.42,1.91.87,5.22,2.7,3,.68-.81-.49-2-1.17-1.17q1.05-.68,1,.57a4.19,4.19,0,0,1-.52,1.52c-.45,1,1,1.8,1.43.83Z"/><path class="cls-6" d="M195.54,346.23c0,1.62.27,3.31,1.95,4a2.43,2.43,0,0,0,3.19-1.27c1.17-2.73-3-4.14-3.8-1.42a.83.83,0,0,0,1.59.44v.8a1.07,1.07,0,0,1-1.06-.82,3.36,3.36,0,0,1-.24-1.72.83.83,0,0,0-1.65,0Z"/><path class="cls-6" d="M271.56,348.16c0,1.62.27,3.31,1.95,4a2.43,2.43,0,0,0,3.19-1.27c1.17-2.73-3-4.14-3.8-1.42a.83.83,0,0,0,1.59.44v.8a1.07,1.07,0,0,1-1.06-.82,3.36,3.36,0,0,1-.24-1.72.83.83,0,0,0-1.65,0Z"/><path class="cls-6" d="M164.11,375.56c.25,1.66.7,3.48,2.37,4.23a2.42,2.42,0,0,0,3.29-1.07,2,2,0,0,0-.93-2.73c-1.53-.69-2.87.47-3.77,1.59-.66.82.5,2,1.17,1.17a6.24,6.24,0,0,1,.65-.76l.8-.52q-.07,1.48-.81.51c-.92-.56-1-1.9-1.17-2.87s-1.75-.6-1.59.44Z"/><path class="cls-6" d="M161.27,348.7c.87-1.64,1.46-3.6.51-5.35-.55-1-2.13-2.38-3.28-1.41s-.4,2.6.3,3.48c1.33,1.69,3.46,2.06,5.49,1.93,1.06-.07,1.06-1.72,0-1.65s-4.09,0-4.46-1.69c-.22-1,.77,1,.79,1.13a4.9,4.9,0,0,1-.78,2.73c-.5.94.93,1.77,1.43.83Z"/><path class="cls-6" d="M150.51,353.9a2.87,2.87,0,0,1-1.15,1.21q.19-1.32.58-.17c.65.95,0,1.85-.69,2.6s.46,2,1.17,1.17c1.18-1.31,2.08-3.21,1-4.86a2.35,2.35,0,0,0-3.53-.61,2,2,0,0,0,.19,3.29c1.63.92,3.12-.5,3.91-1.79.56-.91-.87-1.74-1.43-.83Z"/><path class="cls-6" d="M183.84,354.52a2.87,2.87,0,0,1-1.15,1.21q.19-1.32.58-.17c.65.95,0,1.85-.69,2.6s.46,2,1.17,1.17c1.18-1.31,2.08-3.21,1-4.86a2.35,2.35,0,0,0-3.53-.61,2,2,0,0,0,.19,3.29c1.63.92,3.12-.5,3.91-1.79.56-.91-.87-1.74-1.43-.83Z"/><path class="cls-6" d="M158.45,369c1.58-1.18,3-2.93,2.46-5-.34-1.38-2-3-3.21-1.45-2.47,3.12,2.25,7.86,5.27,4.9.76-.75-.41-1.91-1.17-1.17-1.41,1.38-3.26-.46-3-2.06s.53.89.49,1.11a3.92,3.92,0,0,1-1.7,2.28c-.84.63,0,2.06.83,1.43Z"/><path class="cls-6" d="M279.34,339.26l-.06-.1-.13,1,.12-.13-.8.21.16,0-.61-.8c0,.41-1.4,1.05-1.61,1.11a1,1,0,0,1-1.28-.24.93.93,0,0,1-.49-.84l.66.2a3.35,3.35,0,0,1,.07,1.49,3.57,3.57,0,0,1-.9,1.76c-.7.79.46,2,1.17,1.17,1.37-1.54,2.07-4.1.77-5.93a1.84,1.84,0,0,0-3.32.6,2.84,2.84,0,0,0,2.38,3.48c1.47.2,4.34-1,4.21-2.8a.85.85,0,0,0-.61-.8A1,1,0,0,0,278,339a.84.84,0,0,0-.13,1l.06.1c.56.9,2,.07,1.43-.83Z"/><path class="cls-6" d="M281.25,358.19q-.69,1.1-1.45-.12a2.28,2.28,0,0,1,.2-1.49c.69-1.17,1.47-.27,1.64.69.34,1.85-1.1,3.7-3.06,3-1-.37-1.43,1.23-.44,1.59a3.89,3.89,0,0,0,5.13-3.18c.32-1.79-.75-5.23-3.22-4.39-1.88.64-2.54,3.72-1.37,5.19s3.78,1.1,4.16-.82c.21-1-1.39-1.48-1.59-.44Z"/><path class="cls-8" d="M145.89,304.95a2.44,2.44,0,0,1,3.76-.48c8,6.4,17.43,5.08,26.77,4.21.9-.08,2-.21,3.21-.29-13.45-18.22-25.44-32.34-26.49-31.72-2.74,1.63-30.59,21.92-30.59,21.92,3.71,2.7,14.47,11.52,14.47,11.52s1.16,1.54,3.17,4.12C142.18,311.19,144.09,308.12,145.89,304.95Z"/><ellipse class="cls-14" cx="214.49" cy="244.99" rx="67.03" ry="35.71"/><ellipse class="cls-15" cx="214.49" cy="237.25" rx="67.03" ry="35.71"/><path class="cls-3" d="M314.81,195.29c-6.45-31.66-10.27-68.77-33.06-95.79C233.31,42,143.21,71,119.35,128c-13.44,33-35.85,99.83,13.6,115.72C193.42,263,329.47,267.35,314.81,195.29Z"/><path class="cls-7" d="M168,128c11.67-27.85,39.19-49,69.93-56.65C191.33,58.8,137.07,85.68,119.35,128c-13.44,33-35.85,99.83,13.6,115.72,27.87,8.89,71.79,14.61,109.61,11.14-22.86-1.83-44.66-5.94-61-11.14C132.15,227.8,154.56,161,168,128Z"/><path class="cls-15" d="M106.23,136.35l.42.93a3.14,3.14,0,0,1-.17-.43C106.4,136.7,106.33,136.54,106.23,136.35Z"/><path class="cls-15" d="M106.68,137.34l0,.05-.07-.11A.14.14,0,0,1,106.68,137.34Z"/><path class="cls-15" d="M106.48,136.85a3.14,3.14,0,0,0,.17.43l.07.11C106.83,137.59,106.72,137.36,106.48,136.85Z"/><path class="cls-15" d="M312.66,136.35l-.42.93a3.61,3.61,0,0,0,.17-.43C312.49,136.7,312.57,136.54,312.66,136.35Z"/><path class="cls-15" d="M312.21,137.34l0,.05.07-.11S312.22,137.32,312.21,137.34Z"/><path class="cls-15" d="M312.42,136.85a3.61,3.61,0,0,1-.17.43l-.07.11C312.06,137.59,312.17,137.36,312.42,136.85Z"/><path class="cls-6" d="M352.9,239c-2.78-10.33-25-26-25-26,31,8,19.85-9.94,19.85-9.94-5.56-11.09-31.36-19.5-31.36-19.5,34.14-3.82,13.5-17.21,13.5-17.21-19.85-10.71-48.43-8.79-48.43-8.79,16.28-6.5,17.87-17.21,17.87-17.21-1.59-6.88-14.69-7.65-14.69-7.65-1.85.09-3.61.27-5.27.51-.56.08-1.06.2-1.59.3-1.07.19-2.14.37-3.14.61-.61.15-1.16.33-1.73.5-.85.24-1.7.48-2.49.76-.58.2-1.11.44-1.65.66-.71.29-1.42.57-2.09.89s-1,.52-1.51.78-1.2.64-1.76,1-.92.59-1.37.89-1,.69-1.48,1-.83.65-1.22,1-.84.71-1.23,1.07-.73.69-1.07,1c-.16.16-.34.32-.5.48l0,0a29.56,29.56,0,0,0-7.26,12.59c10.55,11.13-1,18.1-4,19.3s-14.64,15.22-37.85,15.22-34.9-14-37.85-15.22-14.56-8.17-4-19.3a29.56,29.56,0,0,0-7.26-12.59l0,0c-.15-.16-.34-.32-.5-.48q-.51-.52-1.07-1c-.39-.36-.8-.72-1.23-1.07s-.8-.65-1.22-1-1-.7-1.48-1-.89-.6-1.37-.89-1.16-.66-1.76-1-1-.53-1.51-.78-1.38-.6-2.09-.89c-.55-.22-1.08-.45-1.65-.66-.79-.28-1.64-.52-2.49-.76-.58-.17-1.13-.35-1.73-.5-1-.24-2.07-.43-3.14-.61-.54-.09-1-.22-1.59-.3-1.67-.24-3.42-.41-5.27-.51,0,0-13.1.77-14.69,7.65,0,0,1.59,10.71,17.87,17.21,0,0-28.58-1.91-48.43,8.79,0,0-20.64,13.38,13.5,17.21,0,0-25.81,8.41-31.36,19.5,0,0-11.12,18,19.85,9.94,0,0-22.23,15.68-25,26,0,0-4.76,13,21.44-1.53,0,0-9.93,12.24-13.5,23.71s3.35,12.77,15.17,6c0,0-10,12.73-10.81,21.91s1.67,28.15,23.86-3.13c0,0-6,24.55-1.24,34.49,0,0,6.35,5.35,10.32,1.53s7.15-12.24,6.75-16.82c0,0,4.76,22.94,19.85,29.06,0,0,11.12,3.06,13.1-17.2,0,0,6.35,14.14,17.87,18.35s17.47-2.3,17.07-17.21c0,0,5.2,22.7,24.56,22.7S233,318.2,233,318.2c-.39,14.91,5.56,21.41,17.07,17.21s17.87-18.35,17.87-18.35c2,20.27,13.1,17.2,13.1,17.2,15.08-6.12,19.85-29.06,19.85-29.06-.4,4.59,2.78,13,6.75,16.82S318,320.49,318,320.49c4.76-9.94-1.24-34.49-1.24-34.49,22.19,31.28,24.66,12.31,23.86,3.13s-10.81-21.91-10.81-21.91c11.82,6.77,18.74,5.47,15.17-6s-13.5-23.71-13.5-23.71C357.66,252,352.9,239,352.9,239Z"/><ellipse class="cls-16" cx="136.22" cy="141.21" rx="36.72" ry="36.72"/><path class="cls-3" d="M99.67,144.53a36.69,36.69,0,0,0,73.14-.69C148.44,152.18,121.06,156.89,99.67,144.53Z"/><circle class="cls-16" cx="280.44" cy="140.33" r="36.74"/><path class="cls-3" d="M282.12,152c-9.89-.14-26.08-2.46-38.26-8.54a36.7,36.7,0,0,0,72.77,3C305.41,149.91,293.91,152.13,282.12,152Z"/><path class="cls-6" d="M125,114.79a8.57,8.57,0,1,1,8.57,8.57A8.57,8.57,0,0,1,125,114.79Z"/><path class="cls-6" d="M273.95,116.45a8.58,8.58,0,1,1,8.57,8.58A8.58,8.58,0,0,1,273.95,116.45Z"/><path class="cls-17" d="M310.56,66.68c-4.79-3.84-10.82-4.72-17.28-3.87a7.44,7.44,0,0,0-10.76-9,42,42,0,0,0-11.33,9.06,7.81,7.81,0,0,0-6.74-4.54c-13.1-1.16-22.23,17.45-24.35,27.9-1,4.71,2.66,8.75,7.3,9.23,2.74.28,5.47-.46,8.13-1.2,16.89-4.68,38.22-7.08,53.52-15.8C312.88,76.26,314.37,69.73,310.56,66.68Z"/><path class="cls-17" d="M107.17,68.25c4.79-3.84,10.82-4.72,17.28-3.87a7.44,7.44,0,0,1,10.76-9,42,42,0,0,1,11.33,9.06,7.81,7.81,0,0,1,6.74-4.54c13.1-1.16,22.23,17.45,24.35,27.9,1,4.71-2.66,8.75-7.3,9.23-2.74.28-5.47-.46-8.13-1.2C145.32,91.13,124,88.73,108.69,80,104.85,77.83,103.36,71.31,107.17,68.25Z"/><g class="cls-18"><path class="cls-19" d="M169.61,186.32c2.95,1.17,14.64,15.22,37.85,15.22s34.9-14,37.85-15.22S264,177.1,253.67,166c.12,1.07-.76,3.65-2.36,5.72a16.6,16.6,0,0,1-6,4.36c-2.95,1.17-14.64,15.22-37.85,15.22s-34.9-14-37.85-15.22a18.66,18.66,0,0,1-5-3.22c-1.83-1.8-2.64-4-3.45-4.72C150.82,179.24,166.63,185.13,169.61,186.32Z"/></g><path class="cls-20" d="M256.06,253.63c-11.76,9.14-28.44,16-50.35,16.08-30.78.1-47.74-9.42-55.72-21.12-11.3-16.56-4.54-37.49,6.54-41.58a39.75,39.75,0,0,1,4.58-1.41c15.35-3.68,21.55,6.19,44.6,9.7,0,0,36.46,6.22,53.75-4a33.32,33.32,0,0,1,3.45-1.79C284,200.24,282.83,232.81,256.06,253.63Z"/><path class="cls-21" d="M256.06,253.63c-11.76,9.14-28.44,16-50.35,16.08-30.78.1-47.74-9.42-55.72-21.12C150,248.59,200.81,218.68,256.06,253.63Z"/><path class="cls-22" d="M233.19,228.52c2.44.43,5.36-.34,7.83-.58s5.67.09,7.39-1.87.44-3.94,0-6.19c-.29-1.59.22-3.08.46-4.59a86.83,86.83,0,0,1-18.38,1.88l-.29,6.06C230.1,225.56,230.42,228,233.19,228.52Z"/><path class="cls-22" d="M194,267.94h0v-.05a25.4,25.4,0,0,0-.57-10.23,3.35,3.35,0,0,0-3.15-2.4l-8.47-.43c-2.24-.11-5.34-.83-7.55-.09-3.32,1.12-3.91,5.69-3.9,9.26a82.87,82.87,0,0,0,23.43,5.21,3.52,3.52,0,0,0,.11-.39C194,268.52,194,268.24,194,267.94Z"/><path class="cls-22" d="M180,225a57.51,57.51,0,0,1,15.48,2.79,3.29,3.29,0,0,0,4.14-3.15l-.37-10.63c-9.49-2.18-15.79-5.33-21.63-7.34l-.89,15.06A3.32,3.32,0,0,0,180,225Z"/><path class="cls-10" d="M359.18,302.17c7.62-14.42,17.26-28.22,30.66-37.53s31.08-13.53,46.41-8a11.66,11.66,0,0,1,5.42,3.41c1.33,1.71,1.69,4.34.28,6a7.4,7.4,0,0,1-3.31,1.88l-16,5.67c-3.06,1.09-6.78,3.26-6.11,6.44.57,2.73,3.92,3.62,6.63,4.27a40.67,40.67,0,0,1,26.09,20.25,6.53,6.53,0,0,1,1,4.19c-.44,2.25-3,3.53-5.34,3.31s-4.3-1.53-6.22-2.79l-10.59-7c-2.33-1.55-5.61-3.05-7.67-1.15-2.48,2.28-.13,6.27,2,8.88a55.91,55.91,0,0,1,8.7,15.06,11.48,11.48,0,0,1,1,5.87c-.32,2-1.88,3.9-3.89,4-2.35.09-4-2.14-5.41-4.05a53.18,53.18,0,0,0-19.19-16.31c-1-.5-2.2-1-3.21-.48a3.16,3.16,0,0,0-1.45,2.57c-.51,4.06,1.92,7.82,3.66,11.53s2.62,8.64-.32,11.49L393,328.58a5.59,5.59,0,0,0-2.69-2.09c-3.08-.76-4.79,3.68-4.1,6.78s2.29,6.52.6,9.2c-2.37,3.75-8.44,1.77-11.29-1.63s-4.81-8-8.95-9.62c-2.28-.89-4.94-.72-7-2a9,9,0,0,1-3.45-5.3c-2.23-7.69.22-16,3.9-23.09"/><path class="cls-23" d="M288.73,337.22a162.18,162.18,0,0,0,19.55-81.81c-.38-13.14-2.75-27.05-11.47-36.89a9.3,9.3,0,0,0-4.64-3.24c-2.56-.57-5.24.86-6.84,2.93a17.75,17.75,0,0,0-2.88,7.24,78.19,78.19,0,0,0,.35,34.62c-.33-6.8-1.35-14-5.6-19.29s-12.74-7.77-18-3.49c-2.74,2.21-4.11,5.68-5.05,9.07-5.86,21.21,1,43.68,8.65,64.33,2.4,6.52,5,13.25,10,18.07a22.77,22.77,0,0,0,3.68,10.64,3.58,3.58,0,0,0,1.35,1.31,3.82,3.82,0,0,0,2.19.09,58.91,58.91,0,0,0,7.45-1.73"/><path class="cls-17" d="M423.2,284.34c-2.71-.65-6.06-1.54-6.63-4.27-.67-3.18,3.05-5.35,6.11-6.44l16-5.67a7.4,7.4,0,0,0,3.31-1.88c1.4-1.65,1-4.28-.28-6a11.66,11.66,0,0,0-5.42-3.41c-.48-.17-1-.31-1.46-.47-.34,2.37-2.25,4.81-5.52,7.15-5.07,3.62-13,6.24-15.05,12.56-2.72,8.29,10.23,14.6,16,17.94,1.27.73.66,2.71-.64,3-4.18.77-10,1.39-12.37,5.5-2.86,4.95.44,4.86-.21,8.59-.46,2.65-3.22,4.47-5.85,4.44-4.92-.06-7-7-11.57-4.52-3.09,1.66-1.91,4.85-5.4,6.18s-7.26-1.32-10.2,1.6c-1.14,1.13-1.6,3.79-2.11,5.23-1.37,3.88-2.5,8-4.76,11.52a11.74,11.74,0,0,1-3.16,3.38c.51.73,1,1.44,1.59,2.11,2.86,3.4,8.92,5.39,11.29,1.63,1.69-2.68.09-6.11-.6-9.2s1-7.54,4.1-6.78a5.59,5.59,0,0,1,2.69,2.09l9.39,11.06c2.94-2.85,2.05-7.78.32-11.49s-4.16-7.47-3.66-11.53a3.16,3.16,0,0,1,1.45-2.57c1-.49,2.21,0,3.21.48a53.18,53.18,0,0,1,19.19,16.31c1.38,1.91,3.06,4.14,5.41,4.05,2-.08,3.57-2,3.89-4a11.48,11.48,0,0,0-1-5.87,55.91,55.91,0,0,0-8.7-15.06c-2.12-2.62-4.46-6.6-2-8.88,2.06-1.9,5.34-.39,7.67,1.15l10.59,7c1.91,1.27,3.93,2.58,6.22,2.79s4.89-1.06,5.34-3.31a6.53,6.53,0,0,0-1-4.19A40.67,40.67,0,0,0,423.2,284.34Z"/><path class="cls-23" d="M234.17,332c14.85-5.44,32-6.88,46.13.16,3.65,1.81,7.11,4.18,11.1,5,3.22.66,6.55.25,9.81-.17l17.1-2.16c3.86-.49,7.87-1,11.1-3.19a38.19,38.19,0,0,0,5.4-5.06A37.1,37.1,0,0,1,353,316.69l.41-2.46,10,.47c4.13.19,9.13,1,10.67,4.82.78,2,.36,4.18-.31,6.17a26.86,26.86,0,0,1-26.36,17.73c-4.54-.28-8.93-1.75-13.46-2.13a57.08,57.08,0,0,0-13.22.94l-22.37,3.35a8.43,8.43,0,0,0-4.05,1.34c-1.74,1.37-2.12,3.81-2.41,6-2.85,21.22-10.71,42.26-25.28,58s-36.4,25.37-57.59,22.33c-10.35-1.49-20.78-6.39-26.18-15.34-1.89-3.14-2.21-6.28-2.42-9.94-1-16.59,4.43-33.35,14.27-46.75S218.56,337.75,234.17,332Z"/><path class="cls-24" d="M266.53,410.9c14.56-15.7,22.43-36.74,25.28-58,.3-2.2.67-4.64,2.41-6a8.43,8.43,0,0,1,4.05-1.34L310,343.84a15.15,15.15,0,0,1,.66-6.82c-4,2-8.22,3.54-12.3,5.42-6.1,2.81-9.29,6.4-12.72,12.2-4.74,8-9.39,16.06-15.81,22.89-12,12.78-29.7,19.48-46.12,24.5-14,4.28-28.63,6-43.26,7.11a18.51,18.51,0,0,0,2.35,8.77c5.4,9,15.83,13.85,26.18,15.34C230.13,436.27,252,426.6,266.53,410.9Z"/><path class="cls-23" d="M291.35,347.41l1.22-1.13A249.81,249.81,0,0,1,331.79,403c3.41,6.78,6.58,14.49,4.43,21.77-.56,1.9-2,4-3.94,3.83-1.46-.12-2.5-1.43-3.32-2.65a73.12,73.12,0,0,1-6.29-11.57,47.5,47.5,0,0,1,2.6,32c-.67,2.45-1.61,5-3.51,6.64s-5,2.26-7,.65c-1.4-1.14-1.91-3-2.32-4.77q-3.35-14.07-5.71-28.36c1.33,10.31,1.22,20.86-2.47,30.5a20,20,0,0,1-5,8,9.75,9.75,0,0,1-8.78,2.47c-2.5-.68-4.48-2.59-6.12-4.61-9.3-11.47-10.49-27.56-8.66-42.22s6.25-29,6.63-43.77c.13-4.93-.2-9.9.49-14.78a13.1,13.1,0,0,1,2.36-6.46C286.65,347.81,289.14,346.68,291.35,347.41Z"/><path class="cls-25" d="M381.57,307.36c-3.13-3.39-9.34-1.86-10.53-1.53-5.2,1.42-8,5.37-11.82,10.74-2.41,3.39-3.65,5.48-3.93,8.6a9.25,9.25,0,0,0,3.59,8.42c2.21,1.51,5.07,1.72,7.72,1.4a19,19,0,0,0,10.7-5.11c3.59-3.67,4.37-7.81,5-11.35C383.21,314,384,310,381.57,307.36Z"/><path class="cls-23" d="M369.23,334.45l-.66.18c-3.41.79-7.29.83-10.06-1.31a9.37,9.37,0,0,1-3.19-8.43,14,14,0,0,1,1.66-5C359.49,326.52,362.76,332.2,369.23,334.45Z"/><path class="cls-26" d="M355.83,334.05l-.68-.78a3.42,3.42,0,0,0-1.78,4.17,2.7,2.7,0,0,0,2.32-3.78"/><path class="cls-13" d="M391.62,328.85c-10.9,2.62-23.61,1.66-35-1.3a9.37,9.37,0,0,0-3.9-3.08c-2.71-1.08-5.76-.57-8.67-.76a25.27,25.27,0,0,1-11.22-4c-4.52-2.74-9.58-6.47-14.54-4.65-2.6,1-4.44,3.27-5.92,5.62-2.73,4.32-4.75,9.27-4.62,14.38s2.75,10.35,7.34,12.6c5.9,2.89,13,.29,19.47,1.5,8.67,1.63,14.46,9.56,21.44,15a10.67,10.67,0,0,0,5.4,2.56c3.68.31,8.05-3.65,9.24-5.35a10.55,10.55,0,0,0,.84-9.57,11.1,11.1,0,0,0-1.85-2.69,5.44,5.44,0,0,0,1.18-.18,86.12,86.12,0,0,0,24.64-11C400.13,334.87,397.19,327.51,391.62,328.85Z"/><path class="cls-26" d="M351.36,331.15a2.19,2.19,0,0,0-2.64.61,5.44,5.44,0,0,0-1.07,2.7,1.41,1.41,0,0,0,0,.85c.33.69,1.39.44,2,0a5.51,5.51,0,0,0,2-3.52,1,1,0,0,0-.24-.95c-.28-.2-.79.14-.58.41"/><path class="cls-6" d="M360.09,319.53a2.36,2.36,0,0,0,2,2.84,2.58,2.58,0,0,0,2.64-2.41,2.43,2.43,0,0,0-2.43-2.49,2.24,2.24,0,0,0-2.11,2"/><path class="cls-25" d="M345.85,303.87c1.57-.93,8.52-4.79,13.54-2.28a5.69,5.69,0,0,1,2.3,1.93c1.55,2.34.65,5.36,0,7.39a24.26,24.26,0,0,1-10.49,13c-2.92,1.43-6.11,2.63-9.35,2.32s-6.49-2.52-7.05-5.73a9.44,9.44,0,0,1,.86-5.14A24.37,24.37,0,0,1,345.85,303.87Z"/><path class="cls-23" d="M342.18,322.91a13.35,13.35,0,0,0,3.61,3.27c-.28.06-.57.13-.86.17-3.69.54-7.94-.89-9.52-4.27s-.15-7.14,1.84-10.13a26,26,0,0,1,2.18-2.8C339.1,314,339.31,319.07,342.18,322.91Z"/><path class="cls-6" d="M351.94,315.21a2,2,0,0,0,1.6,2.8,2.69,2.69,0,0,0,1.57-.53c.75-.51,1.73-1.81,1.23-2.9a2.51,2.51,0,0,0-3.32-.87"/><path class="cls-6" d="M362.06,360.3c-8.48,2.39-14.12-16.42-28.83-17a83.08,83.08,0,0,1-13-1.25c-3.07-.55-6.47-1.53-8-4.26-1.32-2.37-.75-5.44.77-7.69a18.44,18.44,0,0,1,6.18-5.18c2.22-1.31,4.74-2.53,7.28-2.06a9.37,9.37,0,0,1,4.74,2.64c5.59,5.32,10.54,4.67,27.55,16.08,7.47,5,9.13,6.89,9.37,9.37C368.45,354.51,365.81,359.25,362.06,360.3Z"/><path class="cls-11" d="M198.86,488.6a4.07,4.07,0,0,1-3.69-5.75l4.92-10.76a104.16,104.16,0,0,0,5.08-12.49c3.61-11.74,2.81-24.51,2-36.85a4.06,4.06,0,1,1,8.11-.5c.77,12.46,1.65,26.58-2.38,39.74a110.29,110.29,0,0,1-5.46,13.49l-4.92,10.76A4.06,4.06,0,0,1,198.86,488.6Z"/><path class="cls-11" d="M234.88,484.62a4,4,0,0,1-2.92-1.23,255.89,255.89,0,0,0-23.2-21.14,4.06,4.06,0,0,1,4.07-6.93c6.84,2.77,14.75,5.13,22.4,7.42,3,.91,6,1.8,8.9,2.7a4.06,4.06,0,1,1-2.44,7.75c-2.82-.88-5.78-1.77-8.79-2.67l-3.5-1q4.29,4,8.37,8.25a4.06,4.06,0,0,1-2.92,6.89Z"/><path class="cls-11" d="M192.57,387.1a4.05,4.05,0,0,1-3-1.31c-8.39-9.09-17.06-18.49-28-24a105.12,105.12,0,0,0-12.53-5l-11.18-3.89a4.06,4.06,0,0,1,2.67-7.67l11.17,3.88a111.41,111.41,0,0,1,13.51,5.39c12.3,6.18,21.89,16.58,30.36,25.76a4.06,4.06,0,0,1-3,6.82Z"/><path class="cls-11" d="M166.18,361.75a4.07,4.07,0,0,1-4-4.41A256.34,256.34,0,0,0,162.9,326a4.06,4.06,0,0,1,3.91-4.21,4,4,0,0,1,4.21,3.91q.22,5.86.17,11.75l1.67-3.26c1.43-2.79,2.84-5.53,4.14-8.18a4.06,4.06,0,1,1,7.28,3.6c-1.33,2.68-2.75,5.46-4.2,8.29-3.65,7.11-7.41,14.46-10.14,21.32A4.07,4.07,0,0,1,166.18,361.75Z"/><path class="cls-8" d="M199.34,336.85c-6.48-1.39-10.2-11.26-12.71-17.52-.39-1-.75-2-1.14-2.89l-1.56-2.17c-4.1,3.49-8.67,6.27-14.22,6.7-8.65.67-16.11-4.08-21-10.79a30.38,30.38,0,0,1-2.62,11.49c18.16,22.72,58.45,70.39,70.68,62.25C223.58,379.37,213.41,358.79,199.34,336.85Z"/><path class="cls-17" d="M386.56,218.56c-6.91,2.38-15.85,7.6-11.89,16.45,3.2,7.14,11.29,5.77,16.6,1.92C415,219.74,389,177.64,379.61,159.5l-3,7.29a119,119,0,0,0,40.93-25.13l-7.79-1c3,5.35,5.92,10.71,8.49,16.3,1.1,2.4,6.08,20.94,10.88,16.52s-2.32-11.33-7-7c-7.66,7-4.69,25,8,18.35,15.15-7.92-6.91-40.53-11.77-49.16a5,5,0,0,0-7.79-1A105.47,105.47,0,0,1,374,157.22a5,5,0,0,0-3,7.29,304.06,304.06,0,0,1,13.73,29.91c2,5.17,11,31.45,4.43,33.7,6-2.07,3.42-11.65-2.64-9.57Z"/><path class="cls-17" d="M361.5,423.12c-4.9,1.69-10,5.07-8.35,11,1.32,4.83,6,6.26,10.39,4.51,18.79-7.53,2.11-36.65-3.43-47.42l-3,7.29A71.36,71.36,0,0,0,380.9,384l-7.79-1c2.5,4.43,9.64,14.5,7.71,19.49l4.78-3.64-.48,0,1.28,4.83,1-1.92c4.71-4.33-2.32-11.33-7-7-5.91,5.43-3.78,15.19,5.26,14.07a5.3,5.3,0,0,0,4.78-3.64c3.2-8.24-4.79-20.18-8.71-27.14a5,5,0,0,0-7.79-1,57.83,57.83,0,0,1-19.38,12c-3.09,1.16-4.53,4.24-3,7.29,2.05,4,16.64,35,12.59,36.43,6-2.07,3.42-11.65-2.64-9.57Z"/></g></svg>