<?xml version="1.0" encoding="iso-8859-1"?>
<!-- Generator: Adobe Illustrator 19.0.0, SVG Export Plug-In . SVG Version: 6.00 Build 0)  -->
<svg version="1.1" id="Layer_1" xmlns="http://www.w3.org/2000/svg" xmlns:xlink="http://www.w3.org/1999/xlink" x="0px" y="0px"
	 viewBox="0 0 512.002 512.002" style="enable-background:new 0 0 512.002 512.002;" xml:space="preserve">
<path style="fill:#A66206;" d="M507.098,134.868c-1.339,0.725-3.14,1.666-4.531,2.282c-1.116,0.495-2.651,1.045-3.813,1.419
	c-2.604,0.838-5.287,1.369-8.205,1.623c-2.237,0.195-5.302,0.099-7.129-0.224c-0.962-0.17-2.254-0.383-3.186-0.676
	c-0.466-0.146-1.099-0.311-1.555-0.487c-0.866-0.334-2.024-0.783-2.846-1.211c-1.511-0.788-2.466-1.443-3.001-1.855
	c-1.109-0.853-1.685-1.336-2.935-2.708c-0.166-0.182-1.038-1.165-1.929-2.67c-0.724-1.221-1.077-2.126-1.389-2.926
	c-0.694-1.781-1.147-4.303-1.155-6.427c-0.009-2.516,0.342-4.833,1.103-7.291c1.81-5.838,5.305-9.965,6.453-11.323
	c0.02-0.024,2.062-2.412,4.484-4.404c0.575-0.473,1.341-1.108,1.951-1.535c1.141-0.799,2.695-1.819,3.882-2.55
	c2.986-1.736,7.099-1.538,11.662,1.005c9.28,5.171,16.909,18.082,17.04,28.838l0,0C512.065,129.217,510.184,133.075,507.098,134.868
	z"/>
<path style="fill:#D07400;" d="M488.709,154.115c-0.018-1.138-0.066-2.657-0.18-3.789c-0.101-0.998-0.213-2.332-0.381-3.322
	c-0.4-2.349-0.689-4.046-1.141-5.626c-0.216-0.754-0.469-1.772-0.722-2.516c-1.062-3.132-1.173-3.459-1.737-4.731
	c-1.062-2.397-1.197-2.705-2.063-4.332c-0.912-1.714-1.381-2.454-2.41-4.077c-1.425-2.249-3.463-4.775-4.485-5.925
	c-1.043-1.172-2.51-2.668-3.631-3.764c-0.666-0.65-1.599-1.469-2.322-2.054c-0.824-0.668-1.915-1.573-2.79-2.173
	c-1.585-1.088-3.737-2.487-5.401-3.448c-1.236-0.714-2.959-1.534-4.257-2.13c-0.97-0.446-2.306-0.94-3.296-1.341
	c-1.982-0.802-4.749-1.557-6.839-2.01c-2.248-0.487-5.292-0.923-7.585-1.117c-1.987-0.168-4.66-0.246-6.647-0.071
	c-1.883,0.166-4.393,0.419-6.261,0.703c-1.218,0.185-2.818,0.581-4.019,0.859c-1.84,0.425-4.25,1.197-5.998,1.912
	c-1.895,0.775-4.23,1.907-6.243,2.94c-0.476,0.224-0.945,0.464-1.398,0.727L53.837,315.175c-1.693,1.034-3.943,2.442-5.503,3.669
	c-1.968,1.546-4.455,3.784-6.226,5.553c-0.967,0.967-2.185,2.33-3.006,3.423c-1.451,1.931-3.364,4.539-4.556,6.64
	c-1.066,1.879-2.334,4.472-3.176,6.461c-0.696,1.643-1.49,3.893-1.941,5.618c-0.556,2.125-1.22,4.988-1.509,7.166
	c-0.184,1.385-0.353,3.24-0.441,4.634c-0.065,1.022-0.047,2.389-0.067,3.413c0.055,3.122,0.28,5.024,0.525,6.853
	c0.253,1.887,0.823,4.614,1.178,5.883c0.774,2.767,1.203,4.231,2.458,7.247c1.351,3.246,3.146,6.27,3.222,6.398
	c0.595,0.998,2.183,3.576,4.083,5.95c2.002,2.501,3.039,3.564,5.283,5.751c0.083,0.08,2.059,1.999,5.113,4.228
	c1.553,1.134,3.729,2.499,5.401,3.448c4.139,2.348,8.847,4.047,11.621,4.788c2.11,0.563,4.967,1.163,7.128,1.472
	c1.931,0.277,4.535,0.495,6.485,0.478c2.405-0.022,5.615-0.215,8.003-0.513c1.898-0.237,4.399-0.781,6.248-1.27
	c1.651-0.436,3.836-1.104,5.412-1.76c2.348-0.976,5.395-2.477,7.641-3.668l355.069-206.343c1.693-1.034,3.896-2.505,5.503-3.669
	c1.019-0.739,2.283-1.848,3.238-2.668c0.679-0.582,3.117-2.759,5.995-6.308c5.879-7.251,8.271-14.365,9.058-16.704
	c0.555-1.649,1.182-3.891,1.499-5.602c0.2-1.072,0.485-2.499,0.625-3.581c0.18-1.384,0.397-3.238,0.441-4.634
	C488.674,156.504,488.726,155.139,488.709,154.115z"/>
<g>
	<path style="fill:#A66206;" d="M488.529,150.325c-0.101-0.998-0.213-2.332-0.381-3.322c-0.274-1.61-0.496-2.91-0.754-4.079
		c-0.342,1.557-0.848,3.349-1.316,4.735c-0.787,2.339-3.18,9.453-9.058,16.704c-2.878,3.55-5.315,5.725-5.995,6.308
		c-0.955,0.819-2.218,1.929-3.238,2.668c-1.607,1.165-3.81,2.634-5.503,3.669L107.215,383.351c-2.248,1.189-5.293,2.691-7.641,3.668
		c-1.577,0.655-3.762,1.324-5.412,1.76c-1.849,0.488-4.351,1.032-6.248,1.27c-2.388,0.299-5.598,0.492-8.003,0.513
		c-1.951,0.018-4.554-0.201-6.485-0.478c-2.162-0.309-5.019-0.909-7.128-1.472c-2.774-0.741-7.483-2.439-11.621-4.788
		c-1.672-0.949-3.848-2.314-5.401-3.448c-3.052-2.229-5.029-4.147-5.113-4.228c-2.244-2.187-3.281-3.25-5.283-5.751
		c-1.901-2.374-3.489-4.952-4.083-5.95c-0.076-0.128-1.871-3.151-3.222-6.398c-1.256-3.016-1.683-4.479-2.458-7.247
		c-0.107-0.381-0.234-0.905-0.366-1.489c-0.343,1.505-0.655,3.072-0.83,4.39c-0.184,1.385-0.353,3.24-0.441,4.634
		c-0.065,1.022-0.047,2.389-0.067,3.413c0.055,3.122,0.28,5.024,0.525,6.853c0.253,1.887,0.823,4.614,1.178,5.883
		c0.774,2.767,1.203,4.231,2.458,7.247c1.351,3.246,3.146,6.27,3.222,6.398c0.595,0.998,2.183,3.576,4.083,5.95
		c2.002,2.501,3.039,3.564,5.283,5.751c0.083,0.08,2.059,1.999,5.113,4.228c1.553,1.134,3.729,2.499,5.401,3.448
		c4.139,2.348,8.847,4.047,11.621,4.788c2.11,0.563,4.967,1.163,7.128,1.472c1.931,0.277,4.535,0.495,6.485,0.478
		c2.405-0.022,5.615-0.215,8.003-0.513c1.898-0.237,4.399-0.781,6.248-1.27c1.651-0.436,3.836-1.104,5.412-1.76
		c2.348-0.976,5.395-2.477,7.641-3.668l355.069-206.343c1.693-1.034,3.896-2.505,5.503-3.669c1.019-0.739,2.283-1.848,3.238-2.668
		c0.679-0.582,3.117-2.759,5.995-6.308c5.879-7.251,8.271-14.365,9.058-16.704c0.555-1.649,1.182-3.891,1.499-5.602
		c0.2-1.072,0.485-2.499,0.625-3.581c0.18-1.384,0.397-3.238,0.441-4.634c0.031-1.024,0.083-2.389,0.067-3.413
		C488.691,152.977,488.643,151.458,488.529,150.325z"/>
	<path style="fill:#A66206;" d="M46.564,390.997L46.564,390.997L46.564,390.997c-0.05-2.984-0.621-4.877-1.151-6.416
		c-0.258-0.749-1.045-2.728-2.761-4.927c-1.788-2.289-3.871-3.663-4.656-4.182c-1.112-0.734-2.503-1.374-2.561-1.401
		c-0.868-0.398-2.067-0.837-2.973-1.139c-0.841-0.28-1.996-0.558-2.869-0.708c-1.153-0.2-2.704-0.373-3.871-0.459
		c-1.799-0.132-4.706,0.048-5.943,0.237c-1.371,0.21-3.188,0.559-4.538,0.877c-0.893,0.21-2.064,0.58-2.931,0.88
		c-0.875,0.303-2.037,0.725-2.878,1.111c-1.23,0.563-2.779,1.349-4.052,2.027c-0.076,0.038-0.149,0.079-0.224,0.119
		c-0.082,0.044-0.176,0.092-0.254,0.135c0.024-0.015,0.052-0.023,0.077-0.037c-3.128,1.774-5.044,5.642-4.977,11.15
		c0.132,10.752,7.758,23.658,17.034,28.827c4.584,2.555,8.711,2.738,11.7,0.976c-0.015,0.008-0.027,0.021-0.042,0.029
		c0.039-0.023,0.072-0.045,0.11-0.067c0.025-0.015,0.05-0.03,0.075-0.046c3.47-2.071,5.524-3.803,6.923-5.086
		c3.069-2.813,4.904-5.321,5.724-6.565c0.702-1.065,1.606-2.512,2.157-3.661c0.429-0.897,0.955-2.115,1.322-3.04
		c0.206-0.52,0.411-1.241,0.585-1.773c0.223-0.677,0.413-1.611,0.558-2.309c0.097-0.466,0.18-1.096,0.248-1.567
		C46.521,393.093,46.545,391.893,46.564,390.997L46.564,390.997L46.564,390.997z"/>
</g>
<path style="fill:#884D01;" d="M46.564,390.997c-0.02,0.897-0.044,2.097-0.17,2.984c-0.067,0.471-0.15,1.101-0.248,1.567
	c-0.145,0.698-0.335,1.632-0.558,2.309c-0.174,0.532-0.378,1.253-0.585,1.773c-0.366,0.925-0.891,2.143-1.322,3.04
	c-0.552,1.149-1.456,2.598-2.157,3.661c-0.82,1.244-2.655,3.752-5.724,6.565c-1.424,1.306-3.52,3.077-7.108,5.198
	c3.085-1.793,4.966-5.649,4.9-11.112C42.085,402.049,46.627,396.056,46.564,390.997z"/>
<path style="fill:#D07400;" d="M4.902,377.152c1.337-0.725,3.146-1.648,4.53-2.281c0.841-0.386,2.003-0.808,2.878-1.111
	c0.867-0.3,2.038-0.67,2.931-0.88c1.35-0.318,3.167-0.667,4.538-0.877c1.237-0.189,4.144-0.369,5.943-0.237
	c1.166,0.086,2.719,0.259,3.871,0.459c0.874,0.152,2.028,0.429,2.869,0.709c0.906,0.301,2.105,0.741,2.973,1.139
	c0.059,0.027,1.449,0.668,2.561,1.401c0.785,0.517,2.868,1.892,4.656,4.182c1.716,2.197,2.503,4.177,2.761,4.926
	c0.531,1.539,1.101,3.431,1.151,6.416c0.062,5.06-4.479,11.052-12.971,15.987c-0.132-10.752-7.758-23.658-17.034-28.827
	C11.998,375.615,7.887,375.417,4.902,377.152z"/>
<path style="fill:#A66206;" d="M33.593,406.984c0.132,10.752-7.281,15.277-16.557,10.108c-9.276-5.169-16.902-18.076-17.034-28.827
	c-0.132-10.752,7.281-15.277,16.557-10.108C25.836,383.326,33.461,396.232,33.593,406.984z"/>
<g>
</g>
<g>
</g>
<g>
</g>
<g>
</g>
<g>
</g>
<g>
</g>
<g>
</g>
<g>
</g>
<g>
</g>
<g>
</g>
<g>
</g>
<g>
</g>
<g>
</g>
<g>
</g>
<g>
</g>
</svg>
